<?xml version="1.0" encoding="utf-8"?>
<!-- Generator: Adobe Illustrator 24.1.2, SVG Export Plug-In . SVG Version: 6.00 Build 0)  -->
<svg version="1.1" id="Layer_1" xmlns="http://www.w3.org/2000/svg" xmlns:xlink="http://www.w3.org/1999/xlink" x="0px" y="0px"
	 viewBox="0 0 496 207.1" style="enable-background:new 0 0 496 207.1;" xml:space="preserve">
<style type="text/css">
	.st0{fill:#3C3C3B;}
	.st1{fill:#333333;}
	.st2{clip-path:url(#SVGID_4_);}
	.st3{fill:#FFFFFF;}
</style>
<path id="Shape-2_1_" class="st0" d="M293.1,91.3l-4.3,4.3l17.2,17.2H194.9v6.1H306l-17.2,17.2l4.3,4.3l24.6-24.6L293.1,91.3z"/>
<g>
	<g>
		<polygon id="SVGID_2_" class="st1" points="293.1,91.3 288.8,95.6 306,112.8 194.9,112.8 194.9,118.9 306,118.9 288.8,136.2 
			293.1,140.4 317.7,115.9 		"/>
	</g>
	<g>
		<g>
			<g>
				<polygon id="SVGID_1_" class="st1" points="293.1,91.3 288.8,95.6 306,112.8 194.9,112.8 194.9,118.9 306,118.9 288.8,136.2 
					293.1,140.4 317.7,115.9 				"/>
			</g>
			<g>
				<defs>
					<polygon id="SVGID_3_" points="293.1,91.3 288.8,95.6 306,112.8 194.9,112.8 194.9,118.9 306,118.9 288.8,136.2 293.1,140.4 
						317.7,115.9 					"/>
				</defs>
				<use xlink:href="#SVGID_3_"  style="overflow:visible;fill:#333333;"/>
				<clipPath id="SVGID_4_">
					<use xlink:href="#SVGID_3_"  style="overflow:visible;"/>
				</clipPath>
				<g id="Icon-2_1_" class="st2">
					<g id="_Color_1_" transform="translate(-10 -22)">
						<rect id="Color_1_" x="174.2" y="45.8" class="st1" width="184.2" height="184.2"/>
					</g>
				</g>
			</g>
		</g>
	</g>
</g>
<g>
	<path class="st1" d="M159.7,108c0,36.1-29.6,65.7-65.7,65.7S28.3,144.2,28.3,108S57.8,42.3,94,42.3S159.7,71.9,159.7,108z"/>
</g>
<path class="st3" d="M114,99.6c0,0-5.7,17.8-6.1,19.3c-0.2-1.5-4.3-33.5-4.3-33.5c-9.7,0-14.9,6.9-17.6,14.2c0,0-6.9,17.9-7.5,19.4
	c0-1.4-1.1-19.2-1.1-19.2c-0.6-8.9-8.7-14.4-15.3-14.4l8,48.5c10.2,0,15.6-6.9,18.5-14.2c0,0,6.1-15.8,6.3-16.5
	c0.1,0.7,4.4,30.7,4.4,30.7c10.2,0,15.6-6.4,18.6-13.5l14.2-35.1C122.1,85.4,116.8,92.3,114,99.6z"/>
<g>
	<g>
		<path class="st1" d="M426.7,182.6l45.7-9.9c0,0-16.5-111.6-16.6-112.3c-0.1-0.7-0.7-1.2-1.3-1.2c-0.6,0-12.2-0.9-12.2-0.9
			s-8.1-8.1-9-8.9c-0.2-0.2-0.5-0.4-0.7-0.5L426.7,182.6z"/>
		<path class="st1" d="M430.5,48.6c-0.1,0-0.4,0.1-0.5,0.1s-1.8,0.5-4.5,1.3c-2.7-7.8-7.5-15-15.9-15c-0.2,0-0.5,0-0.7,0
			c-2.4-3.1-5.4-4.4-7.9-4.4c-19.7,0-29.1,24.6-32,37c-7.6,2.3-13.1,4-13.7,4.3c-4.3,1.3-4.4,1.5-4.9,5.5
			c-0.5,2.9-11.6,89.1-11.6,89.1l85.9,16.1L430.5,48.6z M408.1,54.6c0,0.2,0,0.6,0,0.9c-4.8,1.5-10,3.1-15.2,4.6
			c2.9-11.2,8.4-16.7,13.2-18.8C407.4,44.4,408.1,48.7,408.1,54.6z M400.3,35.9c0.9,0,1.7,0.2,2.6,0.9c-6.2,2.9-13.1,10.4-15.9,25.3
			c-4.2,1.3-8.2,2.6-12,3.7C378.3,54.3,386.3,35.9,400.3,35.9z M403.7,102.3c0,0-5.1-2.7-11.2-2.7c-9.2,0-9.5,5.7-9.5,7.2
			c0,7.8,20.5,10.9,20.5,29.3c0,14.5-9.2,23.8-21.6,23.8c-14.9,0-22.5-9.3-22.5-9.3l4-13.2c0,0,7.8,6.7,14.4,6.7
			c4.3,0,6.1-3.4,6.1-5.9c0-10.3-16.9-10.8-16.9-27.6c0-14.2,10.1-28,30.8-28c7.9,0,11.9,2.3,11.9,2.3L403.7,102.3z M411.6,40.4
			c4.4,0.5,7.2,5.5,9,11.1c-2.2,0.7-4.6,1.5-7.3,2.3c0-0.5,0-1,0-1.6C413.3,47.5,412.7,43.6,411.6,40.4z"/>
	</g>
</g>
</svg>
