<?xml version="1.0" encoding="utf-8"?>
<!-- Generator: Adobe Illustrator 24.3.0, SVG Export Plug-In . SVG Version: 6.00 Build 0)  -->
<svg version="1.1" id="Layer_1" xmlns="http://www.w3.org/2000/svg" xmlns:xlink="http://www.w3.org/1999/xlink" x="0px" y="0px"
	 viewBox="0 0 496 207.1" style="enable-background:new 0 0 496 207.1;" xml:space="preserve">
<style type="text/css">
	.st0{fill:#333333;}
	.st1{clip-path:url(#SVGID_5_);}
</style>
<path id="Shape-2_1_" class="st0" d="M293.1,91.3l-4.3,4.3l17.2,17.2H194.9v6.1H306l-17.2,17.2l4.3,4.3l24.6-24.6L293.1,91.3z"/>
<g>
	<g>
		<polygon id="SVGID_2_" class="st0" points="293.1,91.3 288.8,95.6 306,112.8 194.9,112.8 194.9,118.9 306,118.9 288.8,136.2 
			293.1,140.4 317.7,115.9 		"/>
	</g>
	<g>
		<g>
			<g>
				<polygon id="SVGID_1_" class="st0" points="293.1,91.3 288.8,95.6 306,112.8 194.9,112.8 194.9,118.9 306,118.9 288.8,136.2 
					293.1,140.4 317.7,115.9 				"/>
			</g>
			<g>
				<g>
					<g>
						<g>
							<polygon id="SVGID_3_" class="st0" points="293.1,91.3 288.8,95.6 306,112.8 194.9,112.8 194.9,118.9 306,118.9 288.8,136.2 
								293.1,140.4 317.7,115.9 							"/>
						</g>
						<g>
							<defs>
								<polygon id="SVGID_4_" points="293.1,91.3 288.8,95.6 306,112.8 194.9,112.8 194.9,118.9 306,118.9 288.8,136.2 
									293.1,140.4 317.7,115.9 								"/>
							</defs>
							<clipPath id="SVGID_5_">
								<use xlink:href="#SVGID_4_"  style="overflow:visible;"/>
							</clipPath>
							<g id="Icon-2_1_" class="st1">
								<g id="_Color_1_" transform="translate(-10 -22)">
									<rect id="Color_1_" x="174.2" y="45.8" class="st0" width="184.2" height="184.2"/>
								</g>
							</g>
						</g>
					</g>
				</g>
			</g>
		</g>
	</g>
</g>
<path class="st0" d="M94,42.3c-36.2,0-65.7,29.5-65.7,65.7s29.6,65.7,65.7,65.7s65.7-29.6,65.7-65.7S130.2,42.3,94,42.3z
	 M117.9,120.4c-3,7.1-8.4,13.5-18.6,13.5c0,0-4.3-30-4.4-30.7c-0.2,0.7-6.3,16.5-6.3,16.5c-2.9,7.3-8.3,14.2-18.5,14.2l-8-48.5
	c6.6,0,14.7,5.5,15.3,14.4c0,0,1.1,17.8,1.1,19.2c0.6-1.5,7.5-19.4,7.5-19.4c2.7-7.3,7.9-14.2,17.6-14.2c0,0,4.1,32,4.3,33.5
	c0.4-1.5,6.1-19.3,6.1-19.3c2.8-7.3,8.1-14.2,18.1-14.3L117.9,120.4z"/>
<path class="st0" d="M396,44.2c4.4-1,8.8-1.6,13.3-1.8c16.2,0,32.4,0,48.5,0c5.8,0.1,11.6-0.2,17.4,0.1c0,21.9,0,43.7,0,65.6
	c0,12.3-3.4,24.6-10,35.1c-7.4,12-18.8,21.5-32.1,26.5c-6.5,2.5-13.5,3.8-20.5,4.1c-7.2,0.1-14.4-0.9-21.3-3.1
	c-12.7-4.1-24-12.3-31.9-23c-5.7-7.5-9.6-16.3-11.5-25.5c-3-13.8-1.5-28.5,4.3-41.4C360.3,62.7,376.8,48.7,396,44.2 M412.2,59.2
	c0,15.8,0,31.6,0,47.4c15.5,0,31,0,46.4,0c0-15.8,0-31.6,0-47.4C443.2,59.2,427.7,59.2,412.2,59.2 M363.1,109.3
	c-0.1,1.7,0.1,3.5,0.3,5.2c1.6,11.8,7.6,23.1,16.7,30.8c8.1,7,18.7,11.2,29.4,11.4c0-15.8,0-31.6,0-47.3
	C394,109.3,378.5,109.4,363.1,109.3 M412.2,109.5c0,15.8,0,31.6,0,47.4c2.7-0.2,5.4-0.4,8-0.9c10.9-2.2,20.9-8.5,27.8-17.2
	c6.6-8.3,10.4-18.7,10.6-29.3C443.2,109.5,427.7,109.5,412.2,109.5z"/>
</svg>
