<?xml version="1.0" encoding="utf-8"?>
<!-- Generator: Adobe Illustrator 24.1.2, SVG Export Plug-In . SVG Version: 6.00 Build 0)  -->
<svg version="1.1" id="Layer_1" xmlns="http://www.w3.org/2000/svg" xmlns:xlink="http://www.w3.org/1999/xlink" x="0px" y="0px"
	 viewBox="0 0 496 207.1" style="enable-background:new 0 0 496 207.1;" xml:space="preserve">
<style type="text/css">
	.st0{fill:#FFFFFF;}
	.st1{clip-path:url(#SVGID_4_);}
</style>
<path id="Shape-2_1_" class="st0" d="M293.1,91.3l-4.3,4.3l17.2,17.2H194.9v6.1H306l-17.2,17.2l4.3,4.3l24.6-24.6L293.1,91.3z"/>
<g>
	<g>
		<polygon id="SVGID_2_" class="st0" points="293.1,91.3 288.8,95.6 306,112.8 194.9,112.8 194.9,118.9 306,118.9 288.8,136.2 
			293.1,140.4 317.7,115.9 		"/>
	</g>
	<g>
		<g>
			<g>
				<polygon id="SVGID_1_" class="st0" points="293.1,91.3 288.8,95.6 306,112.8 194.9,112.8 194.9,118.9 306,118.9 288.8,136.2 
					293.1,140.4 317.7,115.9 				"/>
			</g>
			<g>
				<g>
					<g>
						<defs>
							<polygon id="SVGID_3_" points="293.1,91.3 288.8,95.6 306,112.8 194.9,112.8 194.9,118.9 306,118.9 288.8,136.2 293.1,140.4 
								317.7,115.9 							"/>
						</defs>
						<use xlink:href="#SVGID_3_"  style="overflow:visible;fill:#FFFFFF;"/>
						<clipPath id="SVGID_4_">
							<use xlink:href="#SVGID_3_"  style="overflow:visible;"/>
						</clipPath>
						<g id="Icon-2_1_" class="st1">
							<g id="_Color_1_" transform="translate(-10 -22)">
								<rect id="Color_1_" x="174.2" y="45.8" class="st0" width="184.2" height="184.2"/>
							</g>
						</g>
					</g>
				</g>
			</g>
		</g>
	</g>
</g>
<path class="st0" d="M94,42.3c-36.2,0-65.7,29.5-65.7,65.7c0,36.2,29.6,65.7,65.7,65.7s65.7-29.6,65.7-65.7
	C159.7,71.9,130.2,42.3,94,42.3z M117.9,120.4c-3,7.1-8.4,13.5-18.6,13.5c0,0-4.3-30-4.4-30.7c-0.2,0.7-6.3,16.5-6.3,16.5
	c-2.9,7.3-8.3,14.2-18.5,14.2l-8-48.5c6.6,0,14.7,5.5,15.3,14.4c0,0,1.1,17.8,1.1,19.2c0.6-1.5,7.5-19.4,7.5-19.4
	c2.7-7.3,7.9-14.2,17.6-14.2c0,0,4.1,32,4.3,33.5c0.4-1.5,6.1-19.3,6.1-19.3c2.8-7.3,8.1-14.2,18.1-14.3L117.9,120.4z"/>
<path class="st0" d="M437.1,95.7L437.1,95.7C437,95.5,437,95.5,437.1,95.7c-0.3-0.1-0.3-0.3-0.3-0.4l2.5-15.6l11.9,11.9l-12.5,5.3
	h-0.1l0,0c0,0,0,0-0.1,0C438.3,96.4,437.8,95.9,437.1,95.7z M454.4,94.6l12.8,12.8c2.7,2.7,3.9,3.9,4.4,5.6c0.1,0.3,0.1,0.5,0.1,0.6
	l-30.6-13l0,0c-0.1,0-0.3-0.1-0.3-0.3c0-0.1,0.1-0.1,0.3-0.3l0,0L454.4,94.6z M471.5,117.8c-0.6,1.3-1.9,2.5-4.1,4.7L452.9,137
	l-18.7-3.9h-0.1c-0.1,0-0.4,0-0.4-0.3c-0.1-1.5-0.9-2.9-2.2-3.9c-0.1-0.1,0-0.3,0-0.3l0,0l3.6-21.6v-0.1c0-0.1,0-0.4,0.3-0.4
	c1.5-0.1,2.9-1,3.8-2.2c0,0,0-0.1,0.1-0.1s0.3,0,0.4,0L471.5,117.8L471.5,117.8z M449.5,140.2L425.7,164l4.1-24.9l0,0V139
	c0-0.1,0.1-0.1,0.3-0.1l0,0c0.9-0.4,1.7-1,2.3-1.7c0.1-0.1,0.1-0.1,0.3-0.3h0.1L449.5,140.2L449.5,140.2z M420.8,169l-2.7,2.7
	L388.5,129l0,0c0,0-0.1-0.1-0.1-0.3c0,0,0-0.1,0.1-0.1l0,0c0.1-0.1,0.1-0.3,0.3-0.4l0.1-0.1l0,0c0-0.1,0.1-0.1,0.1-0.3
	c0.1,0,0.1,0,0.3,0l32.8,6.7c0.1,0,0.1,0,0.3,0.1v0.1c0.5,1.8,1.8,3.2,3.4,3.9c0.1,0,0,0.1,0,0.3v0.1
	C425.2,141.5,421.8,163.1,420.8,169z M415.2,174.6c-2,1.9-3.2,2.9-4.4,3.4c-1.3,0.4-2.7,0.4-3.9,0c-1.5-0.5-2.9-1.8-5.6-4.4
	l-29.7-29.7l7.8-12.1l0.1-0.1c0.1,0,0.3,0,0.3,0c1.8,0.5,3.7,0.4,5.5-0.3c0.1,0,0.1,0,0.3,0l0.1,0.1L415.2,174.6L415.2,174.6z
	 M368.7,140.9l-6.9-6.9l13.5-5.7h0.1c0.1,0,0.1,0.1,0.3,0.3c0.1,0.3,0.3,0.4,0.4,0.6l0,0v0.1L368.7,140.9L368.7,140.9z M358.9,131.1
	l-8.6-8.6c-1.5-1.5-2.5-2.5-3.3-3.4l26.2,5.5h0.1c0.1,0,0.4,0,0.4,0.3c0,0.1-0.3,0.3-0.4,0.3h-0.1L358.9,131.1z M345.4,114.6
	c0-0.5,0.1-1.1,0.3-1.7c0.5-1.5,1.8-2.9,4.4-5.6l11.1-11.1c5.1,7.4,10.2,14.7,15.2,22.1c0.1,0.1,0.1,0.3,0.1,0.4
	c-0.5,0.5-1,1.1-1.3,1.8c0,0.1-0.1,0.1-0.1,0.3H375l0,0L345.4,114.6L345.4,114.6z M364.2,93.5l14.9-14.9c1.4,0.6,6.5,2.8,11.1,4.7
	c3.4,1.4,6.6,2.8,7.5,3.2c0.1,0,0.1,0.1,0.3,0.1c0,0,0,0.1,0,0.3c-0.5,2.2,0.1,4.4,1.8,6.1c0.1,0.1,0,0.3-0.1,0.4v0.1l-15.1,23.4
	c0,0.1-0.1,0.1-0.1,0.1c-0.1,0-0.3,0-0.3,0c-0.6-0.1-1.1-0.3-1.8-0.3c-0.5,0-1.1,0.1-1.8,0.3l0,0c-0.1,0-0.1,0-0.1,0l-0.1-0.1
	L364.2,93.5L364.2,93.5z M382,75.7l19.2-19.2c2.7-2.7,3.9-3.9,5.6-4.4c1.3-0.4,2.7-0.4,3.9,0c1.5,0.5,2.9,1.8,5.6,4.4l4.2,4.2
	l-13.6,21.1l-0.1,0.1c-0.1,0-0.3,0-0.3,0c-2.2-0.6-4.6-0.3-6.4,1.3c-0.1,0.1-0.3,0-0.4,0C397.9,82.3,384,76.5,382,75.7z M423.3,63.5
	l12.6,12.6l-3,18.8l0,0V95c0,0.1-0.1,0.1-0.1,0.1c-0.6,0.3-1.3,0.5-1.8,0.9c0,0,0,0-0.1,0l-0.1,0.1h-0.1L411.4,88l0,0
	c-0.1,0-0.3-0.1-0.3-0.3c-0.1-1-0.5-2.2-1-3c-0.1-0.1-0.3-0.3-0.1-0.5L423.3,63.5z M410.3,92l18,7.6c0.1,0,0.3,0.1,0.3,0.3v0.1
	c0,0.3-0.1,0.5-0.1,0.9v0.5c0,0.1-0.1,0.1-0.3,0.3l0,0c-2.8,1.3-40,17-40.1,17s-0.1,0-0.1,0c-0.1-0.1,0-0.3,0.1-0.4c0,0,0,0,0-0.1
	l14.7-22.9l0,0c0.1-0.1,0.1-0.3,0.4-0.3h0.1c0.4,0,0.6,0.1,0.9,0.1c2.3,0,4.3-1.1,5.6-2.9l0.1-0.1C410.1,91.8,410.2,91.8,410.3,92z
	 M389.8,122.2l40.5-17.3c0,0,0,0,0.1,0c0.3,0.3,0.4,0.4,0.6,0.5h0.1c0.1,0,0.1,0.1,0.1,0.1s0,0,0,0.1l-3.4,21.3v0.1
	c0,0.1,0,0.4-0.3,0.4c-1.9,0.1-3.6,1.1-4.6,2.8l0,0c0,0.1-0.1,0.1-0.1,0.1c-0.1,0-0.1,0-0.3,0l-32.4-6.6
	C390.3,124,389.8,122.2,389.8,122.2z"/>
</svg>
