<?xml version="1.0" encoding="utf-8"?>
<!-- Generator: Adobe Illustrator 24.1.2, SVG Export Plug-In . SVG Version: 6.00 Build 0)  -->
<svg version="1.1" id="Layer_1" xmlns="http://www.w3.org/2000/svg" xmlns:xlink="http://www.w3.org/1999/xlink" x="0px" y="0px"
	 viewBox="0 0 496 207.1" style="enable-background:new 0 0 496 207.1;" xml:space="preserve">
<style type="text/css">
	.st0{fill:#333333;}
	.st1{clip-path:url(#SVGID_4_);}
</style>
<path id="Shape-2_1_" class="st0" d="M293.1,91.3l-4.3,4.3l17.2,17.2H194.9v6.1H306l-17.2,17.2l4.3,4.3l24.6-24.6L293.1,91.3z"/>
<g>
	<g>
		<polygon id="SVGID_2_" class="st0" points="293.1,91.3 288.8,95.6 306,112.8 194.9,112.8 194.9,118.9 306,118.9 288.8,136.2 
			293.1,140.4 317.7,115.9 		"/>
	</g>
	<g>
		<g>
			<g>
				<polygon id="SVGID_1_" class="st0" points="293.1,91.3 288.8,95.6 306,112.8 194.9,112.8 194.9,118.9 306,118.9 288.8,136.2 
					293.1,140.4 317.7,115.9 				"/>
			</g>
			<g>
				<defs>
					<polygon id="SVGID_3_" points="293.1,91.3 288.8,95.6 306,112.8 194.9,112.8 194.9,118.9 306,118.9 288.8,136.2 293.1,140.4 
						317.7,115.9 					"/>
				</defs>
				<use xlink:href="#SVGID_3_"  style="overflow:visible;fill:#333333;"/>
				<clipPath id="SVGID_4_">
					<use xlink:href="#SVGID_3_"  style="overflow:visible;"/>
				</clipPath>
				<g id="Icon-2_1_" class="st1">
					<g id="_Color_1_" transform="translate(-10 -22)">
						<rect id="Color_1_" x="174.2" y="45.8" class="st0" width="184.2" height="184.2"/>
					</g>
				</g>
			</g>
		</g>
	</g>
</g>
<path class="st0" d="M94,42.3c-36.2,0-65.7,29.5-65.7,65.7c0,36.2,29.6,65.7,65.7,65.7s65.7-29.6,65.7-65.7
	C159.7,71.9,130.2,42.3,94,42.3z M117.9,120.4c-3,7.1-8.4,13.5-18.6,13.5c0,0-4.3-30-4.4-30.7c-0.2,0.7-6.3,16.5-6.3,16.5
	c-2.9,7.3-8.3,14.2-18.5,14.2l-8-48.5c6.6,0,14.7,5.5,15.3,14.4c0,0,1.1,17.8,1.1,19.2c0.6-1.5,7.5-19.4,7.5-19.4
	c2.7-7.3,7.9-14.2,17.6-14.2c0,0,4.1,32,4.3,33.5c0.4-1.5,6.1-19.3,6.1-19.3c2.8-7.3,8.1-14.2,18.1-14.3L117.9,120.4z"/>
<g>
	<path class="st0" d="M402.6,53.3c7.8,0,15.3,1.5,22.4,4.5c3.4,1.4,6.7,3.3,9.8,5.3c3.1,2.1,6,4.4,8.5,7c2.6,2.6,4.9,5.5,7,8.5
		c2.1,3.1,3.9,6.4,5.3,9.8c3,7.1,4.5,14.6,4.5,22.4s-1.5,15.3-4.5,22.4c-1.4,3.4-3.3,6.7-5.3,9.8c-2.1,3.1-4.4,6-7,8.5
		c-2.6,2.6-5.5,4.9-8.5,7c-3.1,2.1-6.4,3.9-9.8,5.3c-7.1,3-14.6,4.5-22.4,4.5s-15.3-1.5-22.4-4.5c-3.4-1.4-6.7-3.3-9.8-5.3
		c-3.1-2.1-6-4.4-8.5-7c-2.6-2.6-4.9-5.5-7-8.5c-2.1-3.1-3.9-6.4-5.3-9.8c-3-7.1-4.5-14.6-4.5-22.4s1.5-15.3,4.5-22.4
		c1.4-3.4,3.3-6.7,5.3-9.8c2.1-3.1,4.4-6,7-8.5c2.6-2.6,5.5-4.9,8.5-7c3.1-2.1,6.4-3.9,9.8-5.3C387.3,54.8,394.8,53.3,402.6,53.3
		 M402.6,49.6c-33.8,0-61.3,27.5-61.3,61.3s27.5,61.3,61.3,61.3s61.3-27.5,61.3-61.3S436.5,49.6,402.6,49.6z"/>
	<path class="st0" d="M351.5,111c0,20.2,11.7,37.8,28.8,46l-24.4-66.9C353.1,96.5,351.5,103.6,351.5,111z M437.1,108.3
		c0-6.3-2.3-10.7-4.2-14.1c-2.6-4.2-5-7.7-5-12c0-4.7,3.6-9.1,8.5-9.1c0.2,0,0.5,0.1,0.7,0.1c-9.1-8.3-21.2-13.5-34.6-13.5
		c-17.8,0-33.5,9.2-42.7,23c1.2,0.1,2.4,0.1,3.3,0.1c5.3,0,13.7-0.7,13.7-0.7c2.8-0.2,3.1,3.9,0.3,4.2c0,0-2.8,0.3-5.9,0.5
		l18.6,55.3l11.2-33.5l-7.9-21.8c-2.8-0.2-5.3-0.5-5.3-0.5c-2.8-0.2-2.5-4.4,0.3-4.2c0,0,8.4,0.7,13.5,0.7c5.3,0,13.7-0.7,13.7-0.7
		c2.8-0.2,3.1,3.9,0.3,4.2c0,0-2.8,0.3-5.9,0.5l18.4,54.9l5.2-16.7C435.7,117.9,437.1,112.7,437.1,108.3z M403.5,115.4l-15.3,44.5
		c4.6,1.3,9.4,2.1,14.4,2.1c6,0,11.7-1,17-2.9c-0.2-0.2-0.3-0.5-0.4-0.7L403.5,115.4z M447.5,86.4c0.2,1.6,0.4,3.4,0.4,5.2
		c0,5.1-1,11-3.9,18.3l-15.6,45.2c15.2-8.8,25.4-25.3,25.4-44.2C453.7,102,451.5,93.7,447.5,86.4z"/>
</g>
</svg>
