<?xml version="1.0" encoding="utf-8"?>
<!-- Generator: Adobe Illustrator 24.1.2, SVG Export Plug-In . SVG Version: 6.00 Build 0)  -->
<svg version="1.1" id="Layer_1" xmlns="http://www.w3.org/2000/svg" xmlns:xlink="http://www.w3.org/1999/xlink" x="0px" y="0px"
	 viewBox="0 0 496 207.1" style="enable-background:new 0 0 496 207.1;" xml:space="preserve">
<style type="text/css">
	.st0{fill:#FFFFFF;}
	.st1{clip-path:url(#SVGID_4_);}
</style>
<path id="Shape-2_1_" class="st0" d="M293.1,91.3l-4.3,4.3l17.2,17.2H194.9v6.1H306l-17.2,17.2l4.3,4.3l24.6-24.6L293.1,91.3z"/>
<g>
	<g>
		<polygon id="SVGID_2_" class="st0" points="293.1,91.3 288.8,95.6 306,112.8 194.9,112.8 194.9,118.9 306,118.9 288.8,136.2 
			293.1,140.4 317.7,115.9 		"/>
	</g>
	<g>
		<g>
			<g>
				<polygon id="SVGID_1_" class="st0" points="293.1,91.3 288.8,95.6 306,112.8 194.9,112.8 194.9,118.9 306,118.9 288.8,136.2 
					293.1,140.4 317.7,115.9 				"/>
			</g>
			<g>
				<g>
					<defs>
						<polygon id="SVGID_3_" points="293.1,91.3 288.8,95.6 306,112.8 194.9,112.8 194.9,118.9 306,118.9 288.8,136.2 293.1,140.4 
							317.7,115.9 						"/>
					</defs>
					<use xlink:href="#SVGID_3_"  style="overflow:visible;fill:#FFFFFF;"/>
					<clipPath id="SVGID_4_">
						<use xlink:href="#SVGID_3_"  style="overflow:visible;"/>
					</clipPath>
					<g id="Icon-2_1_" class="st1">
						<g id="_Color_1_" transform="translate(-10 -22)">
							<rect id="Color_1_" x="174.2" y="45.8" class="st0" width="184.2" height="184.2"/>
						</g>
					</g>
				</g>
			</g>
		</g>
	</g>
</g>
<path class="st0" d="M94,42.3c-36.2,0-65.7,29.5-65.7,65.7c0,36.2,29.6,65.7,65.7,65.7s65.7-29.6,65.7-65.7
	C159.7,71.9,130.2,42.3,94,42.3z M117.9,120.4c-3,7.1-8.4,13.5-18.6,13.5c0,0-4.3-30-4.4-30.7c-0.2,0.7-6.3,16.5-6.3,16.5
	c-2.9,7.3-8.3,14.2-18.5,14.2l-8-48.5c6.6,0,14.7,5.5,15.3,14.4c0,0,1.1,17.8,1.1,19.2c0.6-1.5,7.5-19.4,7.5-19.4
	c2.7-7.3,7.9-14.2,17.6-14.2c0,0,4.1,32,4.3,33.5c0.4-1.5,6.1-19.3,6.1-19.3c2.8-7.3,8.1-14.2,18.1-14.3L117.9,120.4z"/>
<g>
	<path class="st0" d="M383.1,144.5h-32.5c-2.8,0-5.2,2.4-5.2,5.2v11.5c0,2.8,2.4,5.2,5.2,5.2h32.7c2.8,0,5.2-2.4,5.2-5.2v-11.5
		C388.2,146.8,385.9,144.5,383.1,144.5"/>
	<path class="st0" d="M447.3,144.5h-32.7c-2.8,0-5,2.4-5,5.2v11.5c0,2.8,2.4,5.2,5.2,5.2h32.7c2.8,0,5.2-2.4,5.2-5.2v-11.5
		C452.3,146.8,450.1,144.5,447.3,144.5"/>
	<path class="st0" d="M447.3,101.2h-96.9c-2.8,0-5.2,2.4-5.2,5.2v11.5c0,2.8,2.4,5.2,5.2,5.2h96.9c2.8,0,5.2-2.4,5.2-5.2v-11.5
		C452.3,103.6,450.1,101.2,447.3,101.2"/>
	<path class="st0" d="M404.7,57.9h-54.1c-2.8,0-5.2,2.4-5.2,5.2v11.5c0,2.8,2.4,5.2,5.2,5.2h54.1c2.8,0,5.2-2.4,5.2-5.2V63.1
		C409.7,60.3,407.5,57.9,404.7,57.9"/>
	<path class="st0" d="M447.3,57.9h-11.2c-2.8,0-5.2,2.4-5.2,5.2v11.5c0,2.8,2.4,5.2,5.2,5.2h11.2c2.8,0,5.2-2.4,5.2-5.2V63.1
		C452.3,60.3,450.1,57.9,447.3,57.9"/>
</g>
</svg>
