<?xml version="1.0" encoding="utf-8"?>
<!-- Generator: Adobe Illustrator 24.0.1, SVG Export Plug-In . SVG Version: 6.00 Build 0)  -->
<svg version="1.1" id="Layer_1" xmlns="http://www.w3.org/2000/svg" xmlns:xlink="http://www.w3.org/1999/xlink" x="0px" y="0px"
	 viewBox="0 0 1508.9 696.7" style="enable-background:new 0 0 1508.9 696.7;" xml:space="preserve">
<style type="text/css">
	.st0{fill:none;stroke:#333333;stroke-miterlimit:10;}
	.st1{fill:#333333;}
	.st2{fill:#4353FF;}
	.st3{fill:#FFFFFF;}
	.st4{fill:#6F39F8;}
	.st5{fill-rule:evenodd;clip-rule:evenodd;fill:#221E1B;}
	.st6{fill:#8C3223;}
	.st7{fill:#E15343;}
	.st8{fill:#5E1F19;}
	.st9{fill:#F2B0A9;}
	.st10{fill:#201C1D;}
	.st11{opacity:0.54;enable-background:new    ;}
	.st12{fill:url(#path-2_2_);}
	.st13{filter:url(#Adobe_OpacityMaskFilter);}
	.st14{fill-rule:evenodd;clip-rule:evenodd;fill:#FFFFFF;}
	.st15{mask:url(#mask-3_8_);}
	.st16{fill:#FFA000;}
	.st17{fill:#F57C00;}
	.st18{filter:url(#Adobe_OpacityMaskFilter_1_);}
	.st19{mask:url(#mask-3_7_);}
	.st20{fill:#FFCA28;}
	.st21{filter:url(#Adobe_OpacityMaskFilter_2_);}
	.st22{mask:url(#mask-3_6_);fill:#FFFFFF;fill-opacity:0.2;}
	.st23{filter:url(#Adobe_OpacityMaskFilter_3_);}
	.st24{opacity:0.2;mask:url(#mask-3_5_);fill:#A52714;enable-background:new    ;}
	.st25{fill:none;}
	.st26{fill:url(#path-4_2_);}
	.st27{fill-rule:evenodd;clip-rule:evenodd;fill:#0E1E25;}
	.st28{fill:url(#SVGID_1_);}
	.st29{fill:#00AD77;}
	.st30{font-family:'MrEavesXLModOT-Heavy';}
	.st31{font-size:22.3351px;}
	.st32{fill:url(#SVGID_2_);}
</style>
<g>
	<line class="st0" x1="380.9" y1="188.6" x2="466.8" y2="188.6"/>
	<line class="st0" x1="642.2" y1="190.8" x2="728.2" y2="190.8"/>
	<line class="st0" x1="909.1" y1="189.7" x2="995.1" y2="189.7"/>
	<path class="st1" d="M584,225.7l-0.7,0L584,225.7L584,225.7z"/>
	<g>
		<path class="st2" d="M365.4,186.5c0,40.2-32.9,73-73,73s-73-32.9-73-73s32.9-73,73-73S365.4,146.3,365.4,186.5z"/>
	</g>
	<path class="st3" d="M314.7,177.1c0,0-6.3,19.8-6.8,21.5c-0.2-1.7-4.8-37.2-4.8-37.2c-10.8,0-16.5,7.6-19.5,15.8
		c0,0-7.7,19.9-8.3,21.5c0-1.6-1.2-21.3-1.2-21.3c-0.7-9.9-9.7-16-17-16l8.8,53.9c11.3,0,17.3-7.7,20.5-15.8c0,0,6.8-17.5,7-18.3
		c0.1,0.8,4.9,34.1,4.9,34.1c11.3,0,17.4-7.2,20.7-15l15.8-39C323.6,161.3,317.7,168.9,314.7,177.1z"/>
	<path class="st4" d="M554.4,114.3c-40.1,0-72.6,32.5-72.6,72.6s32.5,72.6,72.6,72.6c40.1,0,72.6-32.5,72.6-72.6
		S594.5,114.3,554.4,114.3z M600.5,201L600.5,201l-0.5,1.5l0,0.1v0c-1,2.3-2.3,4.6-3.7,6.7l-0.1,0.1c-7.7,11.4-18.2,14.2-23.9,14.9
		c-1.1,0.1-2.1,0.2-2.8,0.2h-0.1l-0.1,0h-0.6l-0.5,0h-0.1l-0.3,0l-0.2,0h-0.1c-0.8-0.1-1.6-0.3-2.4-0.5c-0.7-0.2-1.4-0.6-1.9-1h0
		c-0.7-0.5-1.3-1.2-1.7-1.9c-1.2-1.9-2-4-2.4-6.3c-0.2-0.8-0.3-1.7-0.4-2.6c0,0,0-0.1,0-0.1v0l0,0c-0.3,0.5-0.5,0.9-0.8,1.4
		c-0.2,0.4-0.5,0.8-0.7,1.1l0,0c-0.3,0.4-0.6,0.8-0.9,1.2l0,0c-0.2,0.2-0.3,0.4-0.5,0.6c-0.5,0.6-1,1.1-1.5,1.7
		c-0.2,0.2-0.4,0.4-0.5,0.5c-0.2,0.2-0.4,0.4-0.6,0.5c-0.4,0.3-0.8,0.7-1.1,1c-0.4,0.3-0.8,0.7-1.2,1c-3.3,2.5-7.4,3.9-11.6,3.8
		h-0.5c-7.4-0.1-13-1.5-17-4.3c-4.1-2.9-6.1-7.2-6.1-12.9c0-1.5,0.1-3,0.4-4.5c0.1-0.3,0.1-0.6,0.2-1c5.6-15.5,7.2-31.6,7.6-42
		l0.2-1c0.2-1.3,1-2.4,2.2-3c2.8-1.5,6.5-2.3,11-2.3c4.4,0,6.9,2.9,7.5,8.7c0.5,4.7,0.3,8.9-0.7,12.6c-0.9,3.7-2.1,8.4-3.7,14
		c-1.5,5.6-2.3,10.6-2.3,14.9c0,3.3,1.9,5,5.7,5.2c0.2,0,0.5,0,0.7,0c4.7,0,8.8-4.1,12.3-12.4c2.7-6.4,4.5-13.4,5.5-21.2
		c0-0.1,0-0.2,0-0.3c-0.1-0.7-0.1-1.6-0.2-2.7c-0.1-1.2-0.1-2.4-0.1-3.5c0-1.2-0.1-2.3-0.1-3.5v-2.6c0-6.4,5-9.7,15-9.7
		c2.5,0,4.1,0.8,4.7,2.5c0.6,1.6,1,4.1,1,7.5c0,4.7-1.1,12-3.2,21.9c-0.8,3.9-1.5,7.3-2,10.2c0,0,0,0,0,0c-0.1,0.4-0.1,0.8-0.2,1.2
		v0c-0.6,3.9-0.9,6.8-0.8,8.7c0,1.6,0.5,2.5,1.6,2.5c1.4,0,3.2-0.9,5.3-2.7c0.1-0.1,0.2-0.2,0.3-0.2l0.3-0.3
		c1.9-1.7,3.8-3.5,5.7-5.4c2.1-2.2,4-4.2,5.8-6c1.8-1.8,3-2.7,3.7-2.7c1.3,0,2,1.6,2,4.9C601.3,197.3,601,199.2,600.5,201z"/>
	<line class="st0" x1="554.5" y1="300.8" x2="554.5" y2="395.1"/>
	<line class="st0" x1="554.5" y1="429.7" x2="554.5" y2="453.2"/>
	<line class="st0" x1="185.1" y1="464.9" x2="185.1" y2="514"/>
	<line class="st0" x1="402.8" y1="464.9" x2="402.8" y2="514"/>
	<line class="st0" x1="603.9" y1="464.9" x2="603.9" y2="514"/>
	<line class="st0" x1="792.6" y1="464.9" x2="792.6" y2="514"/>
	<line class="st0" x1="985.8" y1="464.9" x2="985.8" y2="514"/>
	<line class="st0" x1="985.8" y1="465.5" x2="185.1" y2="465.5"/>
	<path class="st5" d="M820.2,114.3c-39.1,0-70.9,32.6-70.9,72.7c0,32.1,20.3,59.4,48.5,69c3.5,0.7,4.8-1.6,4.8-3.5
		c0-1.7-0.1-6.3-0.1-12.4c-19.7,4.4-23.9-9.7-23.9-9.7c-3.2-8.4-7.9-10.6-7.9-10.6c-6.4-4.5,0.5-4.4,0.5-4.4
		c7.1,0.5,10.9,7.5,10.9,7.5c6.3,11.1,16.6,7.9,20.6,6c0.6-4.7,2.5-7.9,4.5-9.7c-15.7-1.8-32.3-8.1-32.3-35.9
		c0-7.9,2.8-14.4,7.3-19.5c-0.7-1.8-3.2-9.2,0.7-19.2c0,0,6-2,19.5,7.5c5.7-1.6,11.7-2.4,17.7-2.4c6,0,12.1,0.8,17.7,2.4
		c13.5-9.4,19.5-7.5,19.5-7.5c3.9,10,1.4,17.4,0.7,19.2c4.5,5.1,7.3,11.6,7.3,19.5c0,27.9-16.6,34.1-32.4,35.9
		c2.5,2.2,4.8,6.7,4.8,13.5c0,9.7-0.1,17.6-0.1,19.9c0,1.9,1.3,4.2,4.9,3.5c28.1-9.6,48.4-36.9,48.4-69
		C891,146.8,859.3,114.3,820.2,114.3z"/>
	<g id="Layer_2_1_">
		<g id="Layer_1-2">
			<g id="S3">
				<path id="path8" d="M178.4,562.3c0-1.5-0.5-2.5-2.2-2.5c-1.5,0-2.4,0.8-2.4,2.3c0,4,6.7,1.6,6.7,6.8c0,3.3-2.4,4.2-4.4,4.2
					c-3.3,0-4.3-1.7-4.3-4.7h1.7c0,1.6,0.1,3.3,2.7,3.3c1.3,0,2.4-1,2.5-2.3c0-0.1,0-0.1,0-0.2c0-4-6.7-1.7-6.7-6.9
					c0-1.3,0.6-3.9,4.2-3.9c2.7,0,4,1.4,4,4L178.4,562.3z"/>
				<path id="path10" d="M185.3,564.9h0.9c1.5,0,2.2-1.1,2.2-2.5c0-1.3-0.5-2.4-1.8-2.4c-1.9,0-2,1.7-2,2.7h-1.7
					c0-2.4,1.1-4.1,3.7-4.1c3,0,3.6,2.1,3.6,3.7c0,1.4-0.7,2.7-2.2,3v0c1.6,0.3,2.6,1.3,2.6,3.3c0,2.6-1.3,4.4-4,4.4
					c-3.8,0-4-3.3-4-3.9v-0.2h1.7c0,1.3,0.6,2.8,2.2,2.8c1,0,2.2-0.5,2.2-2.9c0-1.7-0.8-2.7-2.6-2.7h-0.9L185.3,564.9z"/>
			</g>
			<g id="S3-2">
				<path id="path13" class="st6" d="M129.5,531c2.9-1.4,5.7-2.9,8.6-4.3c0,4.7,0,9.5,0,14.3c-2.8,0.6-5.6,1.4-8.3,2l0.4,0.2
					l-0.6-0.1c-0.1-1.3,0-2.7,0-4C129.4,536.5,129.5,533.7,129.5,531z"/>
				<path id="path15" class="st7" d="M138,526.7c2.9,1.4,5.7,2.9,8.6,4.3v8.2c0,1.3,0,2.5,0,3.8l-0.2,0c-2.8-0.7-5.6-1.4-8.4-2.1
					C138,536.2,138.1,531.5,138,526.7z"/>
				<path id="path17" class="st6" d="M114.6,538.4c1.3-0.6,2.5-1.3,3.8-1.9c0,12.3,0,24.6,0,36.9c-1.3-0.6-2.5-1.2-3.8-1.9
					C114.6,560.5,114.6,549.5,114.6,538.4z"/>
				<path id="path19" class="st7" d="M118.4,536.5c3.7,0.9,7.3,1.8,11,2.7c0,1.3,0,2.7,0,4l0.6,0.1c2.7,0.4,5.3,1,7.9,1.4
					c0,1.1,0,2.1,0,3.2c-2.8,0.3-5.7,0.7-8.6,1.1c0,4,0,8,0,12.1c2.8,0.4,5.7,0.7,8.6,1.1c0.1,1.1,0,2.1,0,3.2
					c-2.9,0.5-5.7,1-8.6,1.6v3.8c-3.7,0.9-7.4,1.8-11,2.7C118.4,561.1,118.5,548.8,118.4,536.5z"/>
				<path id="path21" class="st6" d="M146.6,539.2c3.7-0.9,7.4-1.8,11-2.7c0,11.9,0,23.9,0,35.8c0,0.3,0,0.7-0.1,1
					c-3.7-0.9-7.3-1.7-11-2.6c0-1.3,0-2.6,0-3.8c-2.9-0.5-5.7-1.1-8.6-1.6c0-1.1,0-2.1,0-3.2c-2.9-0.4-5.7-0.7-8.6-1.1
					c0-4,0-8,0-12.1c2.9-0.4,5.7-0.7,8.6-1.1c0-1.1,0-2.1,0-3.2c2.4-0.3,4.8-0.9,7.2-1.2c0.4-0.1,0.8-0.2,1.2-0.3l0.2,0
					C146.6,541.8,146.6,540.5,146.6,539.2z"/>
				<path id="path23" class="st7" d="M157.7,536.5c1.2,0.6,2.5,1.2,3.8,1.9c0,11,0,22.1,0,33.1c-1.3,0.6-2.6,1.3-3.9,1.9v-0.1
					c0-0.3,0.1-0.7,0.1-1C157.6,560.4,157.6,548.5,157.7,536.5L157.7,536.5z"/>
				<path id="path25" class="st8" d="M129.7,543c2.8-0.6,5.6-1.4,8.3-2c2.8,0.6,5.6,1.4,8.4,2.1c-0.4,0.2-0.8,0.3-1.2,0.3
					c-2.4,0.4-4.8,0.9-7.2,1.2c-2.7-0.4-5.3-1-7.9-1.4C129.9,543.2,129.8,543.1,129.7,543z"/>
				<path id="path27" class="st7" d="M138.1,547.9c2.8,0.4,5.7,0.7,8.6,1.1V561c-2.9,0.4-5.7,0.8-8.6,1.1
					C138.1,557.4,138,552.6,138.1,547.9z"/>
				<path id="path29" class="st9" d="M129.5,566.9c2.8-0.5,5.7-1.1,8.6-1.6c2.9,0.5,5.7,1,8.6,1.6c-2.9,0.7-5.7,1.5-8.6,2.1
					C135.2,568.3,132.3,567.6,129.5,566.9z"/>
				<path id="path31" class="st6" d="M129.5,570.7c0-1.3,0-2.5,0-3.8c2.9,0.7,5.7,1.4,8.6,2.1c0,4.7,0,9.5,0,14.3
					c-2.9-1.4-5.7-2.8-8.6-4.3C129.4,576.2,129.5,573.5,129.5,570.7L129.5,570.7z"/>
				<path id="path33" class="st7" d="M138,569c2.9-0.7,5.7-1.4,8.6-2.1c0,1.3,0,2.6,0,3.8c0,2.7,0,5.5,0,8.3
					c-2.9,1.4-5.7,2.9-8.6,4.3C138,578.5,138.1,573.8,138,569z"/>
			</g>
			<path id="Amazon" class="st10" d="M177.5,539.9c-2.3,0-4.9,0.9-5.4,3.8c-0.1,0.2,0.1,0.4,0.3,0.5c0,0,0,0,0,0h0l2.4,0.3
				c0.2-0.1,0.4-0.3,0.4-0.5c0.2-0.9,1-1.6,2-1.5c0.5,0,1,0.2,1.4,0.6c0.3,0.6,0.4,1.2,0.3,1.8v0.3c-1.6,0.1-3.1,0.4-4.6,0.9
				c-1.6,0.7-2.7,2.3-2.6,4.1c0,2.6,1.6,3.9,3.6,3.9c1.6,0.1,3.1-0.6,4-1.8c0.4,0.6,0.8,1.2,1.4,1.6c0.2,0.1,0.4,0.1,0.6-0.1
				c0.5-0.4,1.4-1.2,1.9-1.7c0.2-0.2,0.2-0.5,0-0.7c-0.6-0.6-0.9-1.4-0.9-2.3v-3.8c0-1.6,0.1-3.2-1-4.3
				C180.1,540.3,178.8,539.9,177.5,539.9L177.5,539.9z M209.3,539.9c-2.3,0-4.9,0.9-5.4,3.8c-0.1,0.2,0.1,0.4,0.3,0.5c0,0,0,0,0,0h0
				l2.4,0.3c0.2-0.1,0.4-0.3,0.4-0.5c0.2-0.9,1-1.6,2-1.5c0.5,0,1,0.2,1.4,0.6c0.3,0.6,0.4,1.2,0.3,1.8v0.3
				c-1.6,0.1-3.1,0.4-4.6,0.9c-1.6,0.7-2.7,2.3-2.6,4.1c0,2.6,1.6,3.9,3.6,3.9c1.6,0.1,3-0.6,4-1.8c0.4,0.6,0.8,1.2,1.4,1.6
				c0.2,0.1,0.4,0.1,0.6-0.1c0.5-0.4,1.4-1.2,1.9-1.7c0.2-0.2,0.2-0.5,0-0.7c-0.6-0.6-0.9-1.4-0.9-2.3v-3.8c0-1.6,0.1-3.2-1.1-4.3
				C211.9,540.3,210.6,539.9,209.3,539.9L209.3,539.9z M191.4,540c-1.5,0-2.8,0.9-3.2,2.4v-1.7c0-0.2-0.2-0.4-0.4-0.4h-2.2
				c-0.3,0-0.5,0.2-0.5,0.5v12.8c0,0.2,0.2,0.4,0.4,0.4h2.4c0.3,0,0.5-0.2,0.5-0.5v-6.8c0-1.5-0.1-3.5,1.7-3.5s1.5,2.1,1.5,3.5v6.8
				c0,0.2,0.2,0.4,0.4,0.5h2.4c0.3,0,0.5-0.2,0.5-0.5v-6.8c-0.1-0.8,0-1.6,0.2-2.4c0.2-0.6,0.8-1,1.4-1.1c0.7-0.1,1.3,0.4,1.4,1.1
				c0.1,0.8,0.1,1.6,0.1,2.4v6.8c0,0.2,0.2,0.4,0.4,0.5h2.4c0.3,0,0.5-0.2,0.5-0.5v-8.1c0-1.4,0.1-2.9-0.6-4c-1.2-1.5-3.4-1.8-5-0.6
				c-0.5,0.4-0.9,0.9-1.1,1.6C193.9,540.8,192.9,540,191.4,540L191.4,540z M232.8,540c-3.5,0-5.5,3.1-5.5,7.1s1.9,7.1,5.5,7.1
				c3.4,0,5.6-3.1,5.6-7C238.3,543.2,236.3,540,232.8,540L232.8,540z M246.6,540c-1.7,0-2.6,0.8-3.3,2.6v-1.9
				c-0.1-0.2-0.2-0.3-0.4-0.3h-2.2c-0.2,0-0.4,0.2-0.5,0.4v12.8c0,0.2,0.2,0.4,0.4,0.5h2.4c0.3,0,0.5-0.2,0.5-0.5v-6.9
				c0-0.8,0.1-1.7,0.4-2.4c0.2-0.6,0.7-1,1.3-1c1.7,0,1.5,2,1.5,3.4v6.9c0,0.2,0.2,0.4,0.4,0.4h2.4c0.2,0,0.4-0.2,0.5-0.4v-8
				c0-1.2,0-3-0.6-4C248.8,540.6,247.8,540,246.6,540L246.6,540z M217.4,540.3c-0.2,0-0.4,0.2-0.4,0.4c0,0,0,0,0,0v1.8
				c0,0.2,0.2,0.5,0.4,0.5h4.2l-4.7,7c-0.2,0.4-0.3,0.8-0.3,1.2v1.9c0,0.2,0.2,0.4,0.4,0.4c0.1,0,0.1,0,0.2,0c2.6-1.4,5.8-1.4,8.4,0
				c0.2,0.1,0.5,0,0.6-0.2c0-0.1,0-0.1,0-0.2v-1.9c0-0.3-0.2-0.5-0.4-0.7c-1.4-0.8-3-1.1-4.6-1l4.1-6.1c0.3-0.3,0.5-0.7,0.6-1.1
				v-1.6c0-0.2-0.2-0.5-0.4-0.5L217.4,540.3L217.4,540.3z M232.8,542.7c0.8,0,1.5,0.5,1.6,1.2c0.3,1.1,0.4,2.2,0.3,3.4
				c0,1.6-0.1,4.4-2,4.4c-1.9,0-1.9-3.4-1.9-4.9C230.9,545.2,231,542.7,232.8,542.7L232.8,542.7z M178.8,547.3v0.5
				c0.1,0.9-0.1,1.8-0.4,2.6c-0.3,0.7-0.9,1.1-1.7,1.1c-0.9,0-1.5-0.7-1.5-1.8C175.1,547.7,177,547.3,178.8,547.3L178.8,547.3z
				 M210.6,547.3v0.5c0.1,0.9-0.1,1.8-0.4,2.7c-0.3,0.7-0.9,1.1-1.7,1.1c-0.9,0-1.5-0.7-1.5-1.8C207,547.7,208.8,547.3,210.6,547.3
				L210.6,547.3z"/>
		</g>
	</g>
	<g id="Page-1">
		<g id="styleguide" transform="translate(-243.000000, -875.000000)">
			<g id="Group-10" transform="translate(154.000000, 835.000000)">
				<g id="logo_lockup_firebase_horizontal" transform="translate(66.000000, 34.000000)">
					<path id="Shape" class="st11" d="M381,573.9h-3.1v-24.3h14.3v3H381v8H391v2.9H381V573.9z M398,553.1c-0.8,0.7-1.9,0.9-2.8,0.3
						c-0.9-0.6-1.2-1.7-0.8-2.7s1.4-1.5,2.5-1.3c1,0.2,1.8,1.1,1.8,2.2C398.7,552.1,398.5,552.7,398,553.1L398,553.1z M398,573.9
						h-3.1v-16.6h3.1V573.9z M405,573.9h-3.1v-16.6h3v2.7h0.1c0.4-1,1.1-1.8,2-2.2c0.9-0.6,1.9-0.9,2.9-0.9c0.8,0,1.6,0.1,2.4,0.4
						l-1.2,2.9c-0.5-0.2-1.1-0.3-1.7-0.2c-1.2,0-2.3,0.5-3,1.3c-0.9,0.9-1.3,2.1-1.3,3.5L405,573.9z M420.8,574.4
						c-2.5,0-4.6-0.8-6.2-2.5c-1.6-1.7-2.4-3.8-2.4-6.3c0-2.3,0.8-4.5,2.3-6.2c1.5-1.7,3.6-2.7,5.9-2.6c2.5,0,4.5,0.8,6,2.4
						c1.5,1.6,2.2,3.8,2.2,6.5l0,0.6h-13.2c0.1,1.7,0.7,3,1.7,4c1,0.9,2.3,1.5,3.6,1.5c2.3,0,3.8-1,4.6-2.9l2.8,1.2
						c-0.6,1.3-1.5,2.4-2.7,3.2C424.2,574,422.6,574.4,420.8,574.4z M425.3,563.6c-0.1-1-0.5-1.9-1.3-2.7c-0.8-0.9-2-1.3-3.6-1.3
						c-1.1,0-2.2,0.4-3,1.1c-0.9,0.8-1.5,1.8-1.8,2.9L425.3,563.6z M440,574.4c-1.2,0-2.4-0.3-3.4-0.8c-0.9-0.5-1.7-1.2-2.3-2h-0.1
						v2.3h-3v-24.3h3.1v7.7l-0.1,2.3h0.1c0.6-0.9,1.3-1.6,2.3-2c1.1-0.6,2.2-0.8,3.4-0.8c2.2,0,4,0.8,5.6,2.5
						c1.6,1.7,2.4,3.8,2.4,6.3c0,2.5-0.8,4.6-2.4,6.3C444.1,573.6,442.2,574.5,440,574.4z M439.5,571.6c1.4,0,2.8-0.6,3.8-1.6
						c1-1.1,1.6-2.6,1.6-4.4c0-1.8-0.5-3.3-1.6-4.4c-1-1-2.3-1.6-3.8-1.6c-1.4,0-2.8,0.6-3.8,1.6c-1,1.1-1.6,2.5-1.6,4.4
						c0,1.8,0.5,3.3,1.6,4.4C436.7,571,438.1,571.6,439.5,571.6L439.5,571.6z M456,574.4c-1.8,0-3.3-0.5-4.5-1.5
						c-1.2-1-1.8-2.4-1.8-4c0-1.8,0.7-3.2,2.1-4.3c1.4-1,3.2-1.5,5.2-1.5c1.8,0,3.4,0.3,4.5,1v-0.5c0-1.1-0.4-2.2-1.3-2.9
						c-0.9-0.7-2-1.1-3.1-1.1c-0.9,0-1.7,0.2-2.5,0.6c-0.7,0.4-1.2,1-1.5,1.8l-2.9-1.2c0.4-1,1.2-1.9,2.3-2.8s2.6-1.3,4.5-1.3
						c2.1,0,3.9,0.6,5.3,1.9s2.1,3,2.1,5.3v10.1h-3v-2.3h-0.1C460.3,573.5,458.5,574.4,456,574.4L456,574.4z M456.5,571.6
						c1.3,0,2.6-0.5,3.5-1.4c1-0.8,1.6-2.1,1.6-3.4c-0.9-0.7-2.2-1.1-4-1.1c-1.5,0-2.7,0.3-3.5,1c-0.7,0.6-1.2,1.4-1.2,2.3
						c0,0.8,0.4,1.5,1.1,1.9C454.9,571.4,455.7,571.6,456.5,571.6L456.5,571.6z M474,574.4c-1.9,0-3.4-0.5-4.6-1.4
						c-1.2-0.9-2.1-2-2.7-3.4l2.8-1.2c0.9,2.1,2.4,3.1,4.5,3.1c0.8,0,1.7-0.2,2.4-0.6c0.6-0.4,0.9-1,0.9-1.7c0-1.1-0.8-1.8-2.3-2.2
						l-3.4-0.8c-1.1-0.3-2.2-0.8-3-1.5c-0.9-0.7-1.5-1.9-1.4-3.1c0-1.5,0.7-2.7,2-3.6c1.4-0.9,3-1.4,4.7-1.4c1.4,0,2.8,0.3,4,1
						c1.1,0.6,2,1.7,2.5,2.9l-2.7,1.1c-0.6-1.5-1.9-2.2-3.8-2.2c-0.8,0-1.6,0.2-2.4,0.6c-0.6,0.3-1,0.9-1,1.6c0,1,0.7,1.6,2.2,1.9
						l3.3,0.8c1.6,0.4,2.7,1,3.5,1.9c0.7,0.8,1.1,1.9,1.1,3c0,1.5-0.7,2.9-1.8,3.7C477.5,573.9,475.9,574.4,474,574.4L474,574.4z
						 M490.9,574.4c-2.5,0-4.6-0.8-6.2-2.5c-1.6-1.7-2.4-3.8-2.4-6.4c0-2.3,0.8-4.5,2.3-6.2c1.5-1.7,3.6-2.7,5.9-2.6
						c2.5,0,4.5,0.8,6,2.4c1.5,1.6,2.2,3.8,2.2,6.5l0,0.6h-13.3c0.1,1.7,0.7,3,1.7,4c1,0.9,2.3,1.5,3.7,1.5c2.3,0,3.8-1,4.6-2.9
						l2.8,1.2c-0.6,1.3-1.5,2.4-2.7,3.2C494.3,574,492.7,574.4,490.9,574.4L490.9,574.4z M495.4,563.6c-0.1-1-0.5-1.9-1.3-2.7
						c-0.8-0.9-2-1.3-3.6-1.3c-1.1,0-2.2,0.4-3,1.1c-0.9,0.8-1.5,1.8-1.8,2.9L495.4,563.6z"/>
					<g id="_Group_">
						<g id="_Clip_Group_" transform="translate(23.833333, 5.958333)">
							<g id="_Path_3">
								
									<linearGradient id="path-2_2_" gradientUnits="userSpaceOnUse" x1="144.7185" y1="764.93" x2="145.0929" y2="764.6577" gradientTransform="matrix(95.3333 0 0 -131.0572 -13490.7803 100789.4297)">
									<stop  offset="0" style="stop-color:#FFFFFF;stop-opacity:0.1"/>
									<stop  offset="0.14" style="stop-color:#FFFFFF;stop-opacity:8.000000e-02"/>
									<stop  offset="0.61" style="stop-color:#FFFFFF;stop-opacity:2.000000e-02"/>
									<stop  offset="1" style="stop-color:#FFFFFF;stop-opacity:0"/>
								</linearGradient>
								<path id="path-2_1_" class="st12" d="M336.7,542.4c-0.1-0.4-0.3-0.7-0.7-0.8s-0.8,0-1.1,0.3l-5.6,5.6l-4.4-8.3
									c-0.2-0.4-0.5-0.6-0.9-0.6c-0.4,0-0.8,0.2-0.9,0.6l-2.4,4.5l-6-11.2c-0.2-0.4-0.7-0.6-1.1-0.5c-0.5,0.1-0.8,0.4-0.9,0.9
									l-5.8,37l15.5,8.7c1,0.5,2.2,0.5,3.1,0l15.6-8.7L336.7,542.4z"/>
							</g>
							<defs>
								<filter id="Adobe_OpacityMaskFilter" filterUnits="userSpaceOnUse" x="304.8" y="531.9" width="36.4" height="39">
									<feColorMatrix  type="matrix" values="1 0 0 0 0  0 1 0 0 0  0 0 1 0 0  0 0 0 1 0"/>
								</filter>
							</defs>
							<mask maskUnits="userSpaceOnUse" x="304.8" y="531.9" width="36.4" height="39" id="mask-3_8_">
								<g class="st13">
									<path id="path-2_9_" class="st14" d="M336.7,542.4c-0.1-0.4-0.3-0.7-0.7-0.8s-0.8,0-1.1,0.3l-5.6,5.6l-4.4-8.3
										c-0.2-0.4-0.5-0.6-0.9-0.6c-0.4,0-0.8,0.2-0.9,0.6l-2.4,4.5l-6-11.2c-0.2-0.4-0.7-0.6-1.1-0.5c-0.5,0.1-0.8,0.4-0.9,0.9
										l-5.8,37l15.5,8.7c1,0.5,2.2,0.5,3.1,0l15.6-8.7L336.7,542.4z"/>
								</g>
							</mask>
							<g id="_Group_2" class="st15">
								<g transform="translate(-5.958333, 0.000000)">
									<path id="_Path_" class="st16" d="M312.9,569.8l5.8-37.1c0.1-0.5,0.4-0.8,0.9-0.9s0.9,0.1,1.1,0.6l6,11.2l2.4-4.5
										c0.2-0.4,0.5-0.6,0.9-0.6c0.4,0,0.8,0.2,0.9,0.6l16.2,30.8H312.9z"/>
									<g id="_Group_3" transform="translate(0.000000, 26.067708)">
										<g style="opacity:0.12;enable-background:new    ;">
											
												<image style="overflow:visible;" width="87" height="111" id="Bitmap" xlink:href="562C78C098012684.png"  transform="matrix(0.2673 0 0 0.2673 310.7281 515.1497)">
											</image>
										</g>
										<polygon id="Shape_1_" class="st17" points="332.9,529.3 326.6,517.5 312.9,543.8 										"/>
									</g>
								</g>
							</g>
							<defs>
								<filter id="Adobe_OpacityMaskFilter_1_" filterUnits="userSpaceOnUse" x="305.8" y="539.1" width="37.4" height="40.9">
									<feColorMatrix  type="matrix" values="1 0 0 0 0  0 1 0 0 0  0 0 1 0 0  0 0 0 1 0"/>
								</filter>
							</defs>
							<mask maskUnits="userSpaceOnUse" x="305.8" y="539.1" width="37.4" height="40.9" id="mask-3_7_">
								<g class="st18">
									<path id="path-2_8_" class="st14" d="M336.7,542.4c-0.1-0.4-0.3-0.7-0.7-0.8s-0.8,0-1.1,0.3l-5.6,5.6l-4.4-8.3
										c-0.2-0.4-0.5-0.6-0.9-0.6c-0.4,0-0.8,0.2-0.9,0.6l-2.4,4.5l-6-11.2c-0.2-0.4-0.7-0.6-1.1-0.5c-0.5,0.1-0.8,0.4-0.9,0.9
										l-5.8,37l15.5,8.7c1,0.5,2.2,0.5,3.1,0l15.6-8.7L336.7,542.4z"/>
								</g>
							</mask>
							<g id="_Group_4" class="st19">
								<g transform="translate(-2.979167, 20.109375)">
									<g style="opacity:0.2;enable-background:new    ;">
										
											<image style="overflow:visible;" width="140" height="153" id="Bitmap_2_" xlink:href="562C78C098012687.png"  transform="matrix(0.2673 0 0 0.2673 308.8182 518.9694)">
										</image>
									</g>
									<path id="Shape_2_" class="st20" d="M344.1,549.7l-4.4-27.4c-0.1-0.4-0.3-0.7-0.7-0.8s-0.8,0-1.1,0.3l-28,28l15.5,8.7
										c1,0.5,2.2,0.5,3.1,0L344.1,549.7z"/>
								</g>
							</g>
							<defs>
								<filter id="Adobe_OpacityMaskFilter_2_" filterUnits="userSpaceOnUse" x="306.9" y="531.9" width="34.2" height="38.1">
									<feColorMatrix  type="matrix" values="1 0 0 0 0  0 1 0 0 0  0 0 1 0 0  0 0 0 1 0"/>
								</filter>
							</defs>
							<mask maskUnits="userSpaceOnUse" x="306.9" y="531.9" width="34.2" height="38.1" id="mask-3_6_">
								<g class="st21">
									<path id="path-2_7_" class="st14" d="M336.7,542.4c-0.1-0.4-0.3-0.7-0.7-0.8s-0.8,0-1.1,0.3l-5.6,5.6l-4.4-8.3
										c-0.2-0.4-0.5-0.6-0.9-0.6c-0.4,0-0.8,0.2-0.9,0.6l-2.4,4.5l-6-11.2c-0.2-0.4-0.7-0.6-1.1-0.5c-0.5,0.1-0.8,0.4-0.9,0.9
										l-5.8,37l15.5,8.7c1,0.5,2.2,0.5,3.1,0l15.6-8.7L336.7,542.4z"/>
								</g>
							</mask>
							<path id="_Compound_Path_" class="st22" d="M336.7,542.4c-0.1-0.4-0.3-0.7-0.7-0.8s-0.8,0-1.1,0.3l-5.6,5.6l-4.4-8.3
								c-0.2-0.4-0.5-0.6-0.9-0.6c-0.4,0-0.8,0.2-0.9,0.6l-2.4,4.5l-6-11.2c-0.2-0.4-0.7-0.6-1.1-0.5c-0.5,0.1-0.8,0.4-0.9,0.9
								l-5.8,37h0l0,0l0.2,0.1l22.3-22.3l5.6-5.6c0.3-0.3,0.7-0.4,1.1-0.3c0.4,0.1,0.7,0.4,0.7,0.8l4.4,27.2l0,0L336.7,542.4z
								 M307,569.8l5.7-36.7c0.1-0.5,0.4-0.8,0.9-0.9c0.5-0.1,0.9,0.1,1.1,0.5l6,11.2l2.4-4.5c0.2-0.4,0.5-0.6,0.9-0.6
								c0.4,0,0.8,0.2,0.9,0.6l4.3,8.1L307,569.8z"/>
							<defs>
								<filter id="Adobe_OpacityMaskFilter_3_" filterUnits="userSpaceOnUse" x="306.9" y="569.6" width="34.2" height="9.3">
									<feColorMatrix  type="matrix" values="1 0 0 0 0  0 1 0 0 0  0 0 1 0 0  0 0 0 1 0"/>
								</filter>
							</defs>
							<mask maskUnits="userSpaceOnUse" x="306.9" y="569.6" width="34.2" height="9.3" id="mask-3_5_">
								<g class="st23">
									<path id="path-2_6_" class="st14" d="M336.7,542.4c-0.1-0.4-0.3-0.7-0.7-0.8s-0.8,0-1.1,0.3l-5.6,5.6l-4.4-8.3
										c-0.2-0.4-0.5-0.6-0.9-0.6c-0.4,0-0.8,0.2-0.9,0.6l-2.4,4.5l-6-11.2c-0.2-0.4-0.7-0.6-1.1-0.5c-0.5,0.1-0.8,0.4-0.9,0.9
										l-5.8,37l15.5,8.7c1,0.5,2.2,0.5,3.1,0l15.6-8.7L336.7,542.4z"/>
								</g>
							</mask>
							<path id="_Path_2" class="st24" d="M325.5,578.2c-1,0.5-2.2,0.5-3.1,0l-15.4-8.7l0,0.2l15.5,8.7c1,0.5,2.2,0.5,3.1,0
								l15.6-8.7l0-0.2L325.5,578.2z"/>
						</g>
						<polygon id="_Rectangle_3" class="st25" points="322.2,535.7 373.5,535.7 373.5,587 322.2,587 						"/>
					</g>
					<g id="_Path_3-Copy">
						
							<linearGradient id="path-4_2_" gradientUnits="userSpaceOnUse" x1="168.5567" y1="770.8867" x2="168.9311" y2="770.6144" gradientTransform="matrix(95 0 0 -131 -15683.2734 101532)">
							<stop  offset="0" style="stop-color:#FFFFFF;stop-opacity:0.1"/>
							<stop  offset="0.14" style="stop-color:#FFFFFF;stop-opacity:8.000000e-02"/>
							<stop  offset="0.61" style="stop-color:#FFFFFF;stop-opacity:2.000000e-02"/>
							<stop  offset="1" style="stop-color:#FFFFFF;stop-opacity:0"/>
						</linearGradient>
						<path id="path-4_1_" class="st26" d="M360.5,548.3c-0.1-0.4-0.3-0.7-0.7-0.8s-0.8,0-1.1,0.3l-5.5,5.6l-4.4-8.3
							c-0.2-0.4-0.5-0.6-0.9-0.6s-0.8,0.2-0.9,0.6l-2.4,4.5l-6-11.2c-0.2-0.4-0.7-0.6-1.1-0.5s-0.8,0.4-0.9,0.9l-5.8,37l15.4,8.7
							c1,0.5,2.1,0.5,3.1,0l15.6-8.7L360.5,548.3z"/>
					</g>
				</g>
			</g>
		</g>
	</g>
	<g>
		<path class="st3" d="M863.1,574c-43.8,0-87.6,0-131.5,0c0-10,0-19.9,0-29.9c43.8,0,87.6,0,131.5,0
			C863.1,554.1,863.1,564,863.1,574z M748.3,546.9c-4.7,8.3-9.3,16.3-13.9,24.5c9.3,0,18.4,0,27.8,0
			C757.5,563.2,752.9,555.2,748.3,546.9z M814.5,550.3c-3.3,0-6.6,0-9.9,0c0,5.1,0,10.1,0,15.1c3.3,0,6.6,0,9.8,0c0-0.6,0-1.2,0-1.9
			c-2.6,0-5.1,0-7.6,0c0-1.7,0-3.3,0-5c2.3,0,4.4,0,6.6,0c0-0.6,0-1.1,0-1.8c-2.2,0-4.4,0-6.6,0c0-1.6,0-3.1,0-4.7
			c2.6,0,5.1,0,7.7,0C814.5,551.3,814.5,550.8,814.5,550.3z M784.2,563.5c2.7-3.8,5.2-7.3,7.7-10.9c0.4-0.6,0.6-1.5,0.9-2.4
			c-3.9,0-7.5,0-11.1,0c0,0.6,0.1,1.1,0.1,1.7c2.7,0,5.3,0,8,0c-0.3,0.5-0.5,0.8-0.7,1.1c-2.3,3.3-4.6,6.5-6.9,9.8
			c-0.4,0.7-0.6,1.5-0.9,2.5c4,0,7.7,0,11.3,0c0-0.6,0-1.2,0-1.9C789.8,563.5,787.1,563.5,784.2,563.5z M826.9,565.3
			c3.3,0,6.5,0,9.7,0c0-0.6,0-1.2,0-1.8c-1.2,0-2.4,0-3.7,0c0-3.9,0-7.6,0-11.6c1.3,0,2.5,0,3.6,0c0-0.7,0-1.2,0-1.7
			c-3.3,0-6.4,0-9.6,0c0,0.6,0,1.1,0,1.8c1.2,0,2.4,0,3.6,0c0,3.9,0,7.7,0,11.5c-1.3,0-2.4,0-3.6,0
			C826.9,564.2,826.9,564.7,826.9,565.3z M852.9,552c0,4.6,0,9,0,13.4c0.8,0,1.4,0,2.1,0c0-4.4,0-8.8,0-13.4c1.8,0,3.5,0,5.2,0
			c0-0.7,0-1.2,0-1.7c-4.2,0-8.3,0-12.4,0c0,0.6,0,1.1,0,1.7C849.5,552,851.1,552,852.9,552z"/>
		<path d="M748.3,546.9c4.7,8.3,9.2,16.3,13.9,24.5c-9.4,0-18.5,0-27.8,0C739,563.3,743.6,555.2,748.3,546.9z"/>
		<path d="M814.5,550.3c0,0.6,0,1,0,1.7c-2.6,0-5.1,0-7.7,0c0,1.7,0,3.1,0,4.7c2.2,0,4.4,0,6.6,0c0,0.7,0,1.2,0,1.8
			c-2.2,0-4.3,0-6.6,0c0,1.7,0,3.3,0,5c2.5,0,5,0,7.6,0c0,0.7,0,1.2,0,1.9c-3.2,0-6.5,0-9.8,0c0-5,0-10,0-15.1
			C807.9,550.3,811.2,550.3,814.5,550.3z"/>
		<path d="M784.2,563.5c3,0,5.6,0,8.4,0c0,0.6,0,1.2,0,1.9c-3.6,0-7.3,0-11.3,0c0.3-0.9,0.5-1.8,0.9-2.5c2.2-3.3,4.6-6.5,6.9-9.8
			c0.2-0.3,0.4-0.6,0.7-1.1c-2.8,0-5.3,0-8,0c0-0.7-0.1-1.1-0.1-1.7c3.6,0,7.2,0,11.1,0c-0.3,0.9-0.4,1.7-0.9,2.4
			C789.4,556.2,786.9,559.7,784.2,563.5z"/>
		<path d="M826.9,565.3c0-0.6,0-1.2,0-1.8c1.2,0,2.3,0,3.6,0c0-3.9,0-7.6,0-11.5c-1.2,0-2.3,0-3.6,0c0-0.7,0-1.2,0-1.8
			c3.2,0,6.3,0,9.6,0c0,0.5,0,1,0,1.7c-1.2,0-2.4,0-3.6,0c0,3.9,0,7.7,0,11.6c1.2,0,2.4,0,3.7,0c0,0.7,0,1.2,0,1.8
			C833.4,565.3,830.2,565.3,826.9,565.3z"/>
		<path d="M852.9,552c-1.8,0-3.4,0-5.1,0c0-0.6,0-1.1,0-1.7c4.1,0,8.2,0,12.4,0c0,0.5,0,1,0,1.7c-1.7,0-3.4,0-5.2,0
			c0,4.6,0,8.9,0,13.4c-0.7,0-1.4,0-2.1,0C852.9,561,852.9,556.5,852.9,552z"/>
	</g>
	<g>
		<path class="st27" d="M583.1,552.1l0.1,2.2c1.4-1.7,3.3-2.6,5.6-2.6c4,0,6,2.3,6.1,6.9v12.7h-4.3v-12.4c0-1.2-0.3-2.1-0.8-2.7
			c-0.5-0.6-1.4-0.9-2.6-0.9c-1.7,0-3,0.8-3.9,2.4v13.7h-4.3v-19.2H583.1L583.1,552.1z M607.7,571.6c-2.7,0-4.9-0.9-6.6-2.6
			c-1.7-1.7-2.5-4-2.5-6.9v-0.5c0-1.9,0.4-3.6,1.1-5.1c0.7-1.5,1.8-2.7,3.1-3.5c1.3-0.8,2.8-1.3,4.5-1.3c2.6,0,4.6,0.8,6,2.5
			c1.4,1.7,2.1,4,2.1,7.1v1.7h-12.5c0.1,1.6,0.7,2.8,1.6,3.8c0.9,0.9,2.1,1.4,3.5,1.4c2,0,3.6-0.8,4.8-2.4l2.3,2.2
			c-0.8,1.1-1.8,2-3.1,2.7C610.8,571.3,609.3,571.6,607.7,571.6L607.7,571.6z M607.2,555.2c-1.2,0-2.1,0.4-2.9,1.2
			c-0.7,0.8-1.2,2-1.4,3.5h8.2v-0.3c-0.1-1.4-0.5-2.5-1.2-3.3C609.3,555.6,608.4,555.2,607.2,555.2z M624.1,547.4v4.7h3.4v3.2h-3.4
			V566c0,0.7,0.1,1.3,0.4,1.6c0.3,0.3,0.8,0.5,1.5,0.5c0.5,0,1-0.1,1.5-0.2v3.3c-1,0.3-1.9,0.4-2.8,0.4c-3.3,0-5-1.8-5-5.5v-10.9
			h-3.2v-3.2h3.1v-4.7L624.1,547.4L624.1,547.4z M635.4,571.3h-4.3V544h4.3V571.3z M644.6,571.3h-4.3v-19.2h4.3V571.3z M640.1,547.1
			c0-0.7,0.2-1.2,0.6-1.6c0.4-0.4,1-0.7,1.8-0.7c0.8,0,1.4,0.2,1.8,0.7c0.4,0.4,0.6,1,0.6,1.6c0,0.6-0.2,1.2-0.6,1.6
			c-0.4,0.4-1,0.6-1.8,0.6c-0.8,0-1.4-0.2-1.8-0.6C640.3,548.3,640.1,547.8,640.1,547.1L640.1,547.1z M650.8,571.3v-16h-2.9v-3.2
			h2.9v-1.8c0-2.1,0.6-3.8,1.8-4.9c1.2-1.2,2.8-1.7,5-1.7c0.8,0,1.6,0.1,2.4,0.3l-0.1,3.4c-0.5-0.1-1.1-0.1-1.6-0.1
			c-2.1,0-3.1,1.1-3.1,3.2v1.7h3.9v3.2h-3.9v16L650.8,571.3L650.8,571.3z M668.8,565.1l3.9-13h4.6l-7.6,22.1
			c-1.2,3.2-3.1,4.8-5.9,4.8c-0.6,0-1.3-0.1-2.1-0.3v-3.3l0.8,0.1c1.1,0,1.9-0.2,2.5-0.6c0.5-0.4,1-1.1,1.3-2l0.6-1.6l-6.7-19.1h4.6
			L668.8,565.1z"/>
		
			<radialGradient id="SVGID_1_" cx="158.4006" cy="777.7396" r="1.01" gradientTransform="matrix(0 38.301 44.1228 0 -33767.2656 -5527.0869)" gradientUnits="userSpaceOnUse">
			<stop  offset="0" style="stop-color:#20C6B7"/>
			<stop  offset="1" style="stop-color:#4D9ABF"/>
		</radialGradient>
		<path class="st28" d="M557.4,553.3L557.4,553.3C557.4,553.2,557.4,553.2,557.4,553.3c-0.1,0-0.1-0.1-0.1-0.1l0.8-4.8l3.7,3.7
			l-3.8,1.6c0,0,0,0,0,0h0c0,0,0,0,0,0C557.8,553.5,557.6,553.3,557.4,553.3z M562.7,553l3.9,3.9c0.8,0.8,1.2,1.2,1.4,1.7
			c0,0.1,0,0.1,0.1,0.2l-9.3-4c0,0,0,0,0,0c0,0-0.1,0-0.1-0.1s0-0.1,0.1-0.1l0,0L562.7,553z M567.9,560c-0.2,0.4-0.6,0.8-1.3,1.4
			l-4.4,4.4l-5.7-1.2l0,0c-0.1,0-0.1,0-0.1-0.1c0-0.5-0.3-0.9-0.7-1.2c0,0,0-0.1,0-0.1c0,0,0,0,0,0l1.1-6.6l0,0c0-0.1,0-0.1,0.1-0.1
			c0.5-0.1,0.9-0.3,1.2-0.7c0,0,0,0,0,0c0,0,0.1,0,0.1,0L567.9,560L567.9,560z M561.2,566.9l-7.2,7.2l1.2-7.6l0,0c0,0,0,0,0,0
			c0,0,0,0,0.1,0l0,0c0.3-0.1,0.5-0.3,0.7-0.5c0,0,0.1-0.1,0.1-0.1c0,0,0,0,0,0L561.2,566.9L561.2,566.9z M552.4,575.7l-0.8,0.8
			l-9-13.1c0,0,0,0,0,0c0,0,0,0,0-0.1c0,0,0,0,0,0l0,0c0,0,0.1-0.1,0.1-0.1l0,0l0,0c0,0,0,0,0.1-0.1c0,0,0.1,0,0.1,0l10,2.1
			c0,0,0.1,0,0.1,0c0,0,0,0,0,0c0.1,0.5,0.5,1,1,1.2c0,0,0,0,0,0.1c0,0,0,0,0,0C553.8,567.3,552.7,573.9,552.4,575.7z M550.7,577.4
			c-0.6,0.6-1,0.9-1.4,1c-0.4,0.1-0.8,0.1-1.2,0c-0.5-0.1-0.9-0.6-1.7-1.4l-9.1-9.1l2.4-3.7c0,0,0,0,0,0c0,0,0.1,0,0.1,0
			c0.5,0.2,1.1,0.1,1.7-0.1c0,0,0.1,0,0.1,0c0,0,0,0,0,0L550.7,577.4L550.7,577.4z M536.5,567.1l-2.1-2.1l4.1-1.8c0,0,0,0,0,0
			c0,0,0.1,0,0.1,0.1c0,0.1,0.1,0.1,0.1,0.2l0,0c0,0,0,0,0,0.1L536.5,567.1L536.5,567.1z M533.5,564.1l-2.6-2.6
			c-0.4-0.4-0.8-0.8-1-1.1l8,1.7c0,0,0,0,0,0c0,0,0.1,0,0.1,0.1c0,0.1-0.1,0.1-0.1,0.1l0,0L533.5,564.1z M529.4,559.1
			c0-0.2,0-0.3,0.1-0.5c0.1-0.5,0.6-0.9,1.4-1.7l3.4-3.4c1.6,2.3,3.1,4.5,4.7,6.7c0,0,0.1,0.1,0,0.1c-0.1,0.2-0.3,0.3-0.4,0.5
			c0,0,0,0-0.1,0.1c0,0,0,0,0,0h0L529.4,559.1L529.4,559.1z M535.2,552.6l4.5-4.5c0.4,0.2,2,0.8,3.4,1.4c1,0.4,2,0.8,2.3,1
			c0,0,0.1,0,0.1,0.1c0,0,0,0,0,0.1c-0.1,0.7,0.1,1.4,0.5,1.8c0,0,0,0.1,0,0.1l0,0l-4.6,7.1c0,0,0,0,0,0.1c0,0-0.1,0-0.1,0
			c-0.2,0-0.4-0.1-0.5-0.1c-0.2,0-0.3,0-0.5,0.1h0c0,0,0,0-0.1,0c0,0,0,0,0-0.1L535.2,552.6L535.2,552.6z M540.6,547.2l5.9-5.9
			c0.8-0.8,1.2-1.2,1.7-1.4c0.4-0.1,0.8-0.1,1.2,0c0.5,0.1,0.9,0.6,1.7,1.4l1.3,1.3l-4.2,6.5c0,0,0,0,0,0c0,0-0.1,0-0.1,0
			c-0.7-0.2-1.4-0.1-1.9,0.4c0,0-0.1,0-0.1,0C545.4,549.2,541.2,547.4,540.6,547.2z M553.2,543.4l3.9,3.9l-0.9,5.7v0c0,0,0,0,0,0
			c0,0,0,0-0.1,0c-0.2,0.1-0.4,0.2-0.6,0.3c0,0,0,0,0,0c0,0,0,0,0,0c0,0,0,0,0,0l-5.9-2.5l0,0c0,0-0.1,0-0.1-0.1
			c0-0.3-0.1-0.6-0.3-0.9c0,0-0.1-0.1,0-0.1L553.2,543.4z M549.3,552.1l5.5,2.3c0,0,0.1,0,0.1,0.1c0,0,0,0,0,0.1c0,0.1,0,0.2,0,0.3
			v0.2c0,0,0,0.1-0.1,0.1l0,0c-0.9,0.4-12.2,5.2-12.3,5.2s0,0-0.1,0c0,0,0-0.1,0-0.1c0,0,0,0,0,0l4.5-7l0,0c0,0,0.1-0.1,0.1-0.1l0,0
			c0.1,0,0.2,0,0.3,0c0.7,0,1.3-0.3,1.7-0.9C549.1,552.1,549.1,552.1,549.3,552.1C549.2,552.1,549.2,552.1,549.3,552.1z M543,561.4
			l12.4-5.3c0,0,0,0,0,0c0.1,0.1,0.1,0.1,0.2,0.2l0,0c0,0,0.1,0,0.1,0.1c0,0,0,0,0,0l-1.1,6.5l0,0c0,0.1,0,0.1-0.1,0.1
			c-0.6,0-1.1,0.4-1.4,0.9l0,0c0,0,0,0-0.1,0.1c0,0,0,0-0.1,0l-9.9-2C543.1,561.9,543,561.4,543,561.4z"/>
	</g>
	<g>
		<path d="M987.2,551.7l-2,1.2v5.2h-1.6v-6.1l2.3-1.4c3.6-2,6.1-5.3,6.1-9.1c0-4.8-3.2-6.7-6.5-6.7c-2.6,0-5.2,1.3-7.1,3.1V536
			c1.8-1.5,4.4-2.8,7.3-2.8c4,0,8.2,2.6,8.2,8.3C994.1,546.1,990.8,549.6,987.2,551.7z M983.1,567.7v-2.7h2.7v2.7H983.1z"/>
	</g>
	<g>
		<path d="M200.7,279h4.2c5.2,0,7.5,3,7.5,6.7s-2.3,6.7-7.5,6.7h-4.2V279z M204.9,290.8c4.4,0,5.6-2.5,5.6-5.1s-1.2-5.1-5.6-5.1
			h-2.4v10.3H204.9z"/>
		<path d="M214.5,279h8.1v1.5h-6.3v4.1h5.2v1.5h-5.2v4.8h6.3v1.5h-8.1V279z"/>
		<path d="M224.3,291l0.4-1.7c0.8,0.9,2.1,1.8,4.1,1.8c1.6,0,2.8-0.9,2.8-2.3c0-1.4-0.7-2.1-3.2-2.8c-2.5-0.7-3.7-2-3.7-3.9
			c0-1.9,1.6-3.5,4.3-3.5c1.5,0,2.9,0.6,3.6,1.2l-0.4,1.4c-0.9-0.6-2.1-1.2-3.2-1.2c-1.7,0-2.6,0.8-2.6,2c0,1,0.6,1.8,2.7,2.3
			c2.9,0.8,4.2,2,4.2,4.2c0,2.6-2.2,4-4.5,4C226.6,292.7,225,291.8,224.3,291z"/>
		<path d="M235.4,279h1.8v13.4h-1.8V279z"/>
		<path d="M239.4,285.7c0-4.3,3.3-7,7.1-7c1.7,0,3.5,0.6,4.6,1.4v1.9c-1.1-1-2.6-1.8-4.6-1.8c-3.1,0-5.3,2.1-5.3,5.5
			c0,3.3,2.2,5.6,5.3,5.6c1.3,0,2.5-0.3,3.4-0.8v-3h-2.7v-1.5h4.5v5.4c-0.7,0.3-2.7,1.4-5.2,1.4C242.6,292.7,239.4,290,239.4,285.7z
			"/>
		<path d="M254.5,279h1l8,10v-10h1.6v13.4h-1l-8-10v10h-1.6V279z"/>
		<path d="M272.3,279h1.8v13.4h-1.8V279z"/>
		<path d="M276.9,279h1l8,10v-10h1.6v13.4h-1l-8-10v10h-1.6V279z"/>
		<path d="M293.3,279h1.8l3.2,9.9c0.1,0.2,0.2,0.8,0.2,0.8c0-0.1,0.1-0.6,0.2-0.8l3.2-9.9h1.1l3.2,9.9c0.1,0.2,0.2,0.8,0.2,0.8
			s0.1-0.6,0.2-0.8l3.2-9.9h1.7l-4.6,13.4h-1.1l-3.2-9.2c-0.1-0.2-0.2-0.7-0.2-0.7c0,0-0.2,0.6-0.2,0.7l-3.2,9.2H298L293.3,279z"/>
		<path d="M313.1,279h8.1v1.5h-6.3v4.1h5.2v1.5h-5.2v4.8h6.3v1.5h-8.1V279z"/>
		<path d="M323.6,279h4.4c2.7,0,3.9,1.6,3.9,3.5c0,1-0.6,2.1-1.4,2.6c1.3,0.6,2.1,1.9,2.1,3.3c0,2.2-1.3,3.9-4.4,3.9h-4.6V279z
			 M328,284.5c1.7,0,2.2-1,2.2-2c0-1-0.5-2-2.2-2h-2.6v4H328z M328.3,290.9c2,0,2.6-1.2,2.6-2.4s-0.6-2.4-2.6-2.4h-2.9v4.9H328.3z"
			/>
		<path d="M334.7,279h8.1v1.5h-6.3v4.1h5.2v1.5h-5.2v6.3h-1.8V279z"/>
		<path d="M344.4,279h1.8v11.9h6.3v1.5h-8.1V279z"/>
		<path d="M352.7,285.7c0-4.1,3-7.1,7.1-7.1c4.1,0,7.1,3,7.1,7.1s-3,7.1-7.1,7.1C355.8,292.7,352.7,289.8,352.7,285.7z M365.1,285.7
			c0-3.3-2.2-5.6-5.2-5.6c-3.1,0-5.3,2.3-5.3,5.6c0,3.2,2.2,5.6,5.3,5.6C362.9,291.3,365.1,288.9,365.1,285.7z"/>
		<path d="M367.4,279h1.8l3.2,9.9c0.1,0.2,0.2,0.8,0.2,0.8c0-0.1,0.1-0.6,0.2-0.8l3.2-9.9h1.1l3.2,9.9c0.1,0.2,0.2,0.8,0.2,0.8
			s0.1-0.6,0.2-0.8l3.2-9.9h1.7l-4.6,13.4h-1.1l-3.2-9.2c-0.1-0.2-0.2-0.7-0.2-0.7c0,0-0.2,0.6-0.2,0.7l-3.2,9.2H372L367.4,279z"/>
	</g>
	<g>
		<path d="M445.7,285.7c0-4.3,3.3-7,7.1-7c1.7,0,3.5,0.6,4.6,1.4v1.9c-1.1-1-2.6-1.8-4.6-1.8c-3.1,0-5.3,2.1-5.3,5.5
			c0,3.3,2.2,5.5,5.3,5.5c2.1,0,3.6-0.8,4.6-1.8v1.9c-1.1,0.8-2.9,1.4-4.6,1.4C448.9,292.7,445.7,290,445.7,285.7z"/>
		<path d="M458.8,285.7c0-4.1,3-7.1,7.1-7.1c4.1,0,7.1,3,7.1,7.1s-3,7.1-7.1,7.1C461.9,292.7,458.8,289.8,458.8,285.7z M471.2,285.7
			c0-3.3-2.2-5.6-5.2-5.6c-3.1,0-5.3,2.3-5.3,5.6c0,3.2,2.2,5.6,5.3,5.6C469,291.3,471.2,288.9,471.2,285.7z"/>
		<path d="M475.2,279h1l8,10v-10h1.6v13.4h-1l-8-10v10h-1.6V279z"/>
		<path d="M487.4,279h1.8l4.6,10.7l4.6-10.7h1.7l-5.8,13.4h-1.2L487.4,279z"/>
		<path d="M501.6,279h8.1v1.5h-6.3v4.1h5.2v1.5h-5.2v4.8h6.3v1.5h-8.1V279z"/>
		<path d="M512.1,279h4.4c3.1,0,4.4,1.8,4.4,3.9c0,1.7-0.8,3.2-2.8,3.7l4.1,5.7h-2.1l-3.8-5.5h-2.4v5.5h-1.8V279z M516.5,285.3
			c2,0,2.6-1.2,2.6-2.4s-0.6-2.4-2.6-2.4h-2.6v4.9H516.5z"/>
		<path d="M526.4,280.5h-4.8V279H533v1.5h-4.8v11.9h-1.8V280.5z"/>
		<path d="M537.6,279h1.8l3.2,9.9c0.1,0.2,0.2,0.8,0.2,0.8c0-0.1,0.1-0.6,0.2-0.8l3.2-9.9h1.1l3.2,9.9c0.1,0.2,0.2,0.8,0.2,0.8
			s0.1-0.6,0.2-0.8l3.2-9.9h1.7l-4.6,13.4h-1.1l-3.2-9.2c-0.1-0.2-0.2-0.7-0.2-0.7c0,0-0.2,0.6-0.2,0.7l-3.2,9.2h-1.1L537.6,279z"/>
		<path d="M557.4,279h1.8v13.4h-1.8V279z"/>
		<path d="M565.5,280.5h-4.8V279H572v1.5h-4.8v11.9h-1.8V280.5z"/>
		<path d="M573.6,279h1.8v5.6h7.4V279h1.8v13.4h-1.8V286h-7.4v6.3h-1.8V279z"/>
		<path d="M591.7,286.2V279h1.8v7.2c0,3.5,1.6,5,4,5c2.5,0,4-1.5,4-5V279h1.7v7.2c0,4.5-2.3,6.6-5.8,6.6S591.7,290.7,591.7,286.2z"
			/>
		<path d="M606.1,279h4.2c5.2,0,7.5,3,7.5,6.7s-2.3,6.7-7.5,6.7h-4.2V279z M610.3,290.8c4.4,0,5.6-2.5,5.6-5.1s-1.2-5.1-5.6-5.1
			h-2.4v10.3H610.3z"/>
		<path d="M619.9,279h8.1v1.5h-6.3v4.1h5.2v1.5h-5.2v4.8h6.3v1.5h-8.1V279z"/>
		<path d="M629.7,291l0.4-1.7c0.8,0.9,2.1,1.8,4.1,1.8c1.6,0,2.8-0.9,2.8-2.3c0-1.4-0.7-2.1-3.2-2.8c-2.5-0.7-3.7-2-3.7-3.9
			c0-1.9,1.6-3.5,4.3-3.5c1.5,0,2.9,0.6,3.6,1.2l-0.4,1.4c-0.9-0.6-2.1-1.2-3.2-1.2c-1.7,0-2.6,0.8-2.6,2c0,1,0.6,1.8,2.7,2.3
			c2.9,0.8,4.2,2,4.2,4.2c0,2.6-2.2,4-4.5,4C632,292.7,630.5,291.8,629.7,291z"/>
		<path d="M640.8,279h1.8v11.9h6.3v1.5h-8.1V279z"/>
		<path d="M651.3,287l-5.2-8h1.9l4.2,6.6l4.2-6.6h1.9l-5.2,8v5.4h-1.8V287z"/>
	</g>
	<rect x="52.1" y="405.3" class="st25" width="1005.8" height="21.8"/>
	<text transform="matrix(1 0 0 1 163.6957 418.6781)" class="st29 st30 st31">DOWNLOAD THE ZIP FILE, BUILD IT WITH ELEVENTY (11ty) AND HOST ANYWHERE</text>
	<g>
		<path d="M730.9,286.2V279h1.8v7.2c0,3.5,1.6,5,4,5c2.5,0,4-1.5,4-5V279h1.7v7.2c0,4.5-2.3,6.6-5.8,6.6
			C733.3,292.7,730.9,290.7,730.9,286.2z"/>
		<path d="M745.3,279h4.4c3.1,0,4.4,1.9,4.4,4s-1.3,4-4.4,4h-2.6v5.3h-1.8V279z M749.8,285.6c2,0,2.6-1.3,2.6-2.5s-0.6-2.5-2.6-2.5
			h-2.6v5.1H749.8z"/>
		<path d="M755.8,279h1.8v11.9h6.3v1.5h-8.1V279z"/>
		<path d="M764.2,285.7c0-4.1,3-7.1,7.1-7.1c4.1,0,7.1,3,7.1,7.1s-3,7.1-7.1,7.1C767.2,292.7,764.2,289.8,764.2,285.7z M776.5,285.7
			c0-3.3-2.2-5.6-5.2-5.6c-3.1,0-5.3,2.3-5.3,5.6c0,3.2,2.2,5.6,5.3,5.6C774.4,291.3,776.5,288.9,776.5,285.7z"/>
		<path d="M784.1,279h1.2l5.8,13.4h-1.8l-1.6-3.8h-5.9l-1.6,3.8h-1.7L784.1,279z M787,287.2l-2.3-5.5l-2.3,5.5H787z"/>
		<path d="M792.6,279h4.2c5.2,0,7.5,3,7.5,6.7s-2.3,6.7-7.5,6.7h-4.2V279z M796.8,290.8c4.4,0,5.6-2.5,5.6-5.1s-1.2-5.1-5.6-5.1
			h-2.4v10.3H796.8z"/>
		<path d="M814.2,280.5h-4.8V279h11.3v1.5H816v11.9h-1.8V280.5z"/>
		<path d="M820.8,285.7c0-4.1,3-7.1,7.1-7.1c4.1,0,7.1,3,7.1,7.1s-3,7.1-7.1,7.1C823.8,292.7,820.8,289.8,820.8,285.7z M833.1,285.7
			c0-3.3-2.2-5.6-5.2-5.6c-3.1,0-5.3,2.3-5.3,5.6c0,3.2,2.2,5.6,5.3,5.6C831,291.3,833.1,288.9,833.1,285.7z"/>
		<path d="M840.8,285.7c0-4.3,3.3-7,7.1-7c1.7,0,3.5,0.6,4.6,1.4v1.9c-1.1-1-2.6-1.8-4.6-1.8c-3.1,0-5.3,2.1-5.3,5.5
			c0,3.3,2.2,5.6,5.3,5.6c1.3,0,2.5-0.3,3.4-0.8v-3h-2.7v-1.5h4.5v5.4c-0.7,0.3-2.7,1.4-5.2,1.4C844.1,292.7,840.8,290,840.8,285.7z
			"/>
		<path d="M856,279h1.8v13.4H856V279z"/>
		<path d="M864.1,280.5h-4.8V279h11.3v1.5h-4.8v11.9h-1.8V280.5z"/>
		<path d="M872.2,279h1.8v5.6h7.4V279h1.8v13.4h-1.8V286H874v6.3h-1.8V279z"/>
		<path d="M886,286.2V279h1.8v7.2c0,3.5,1.6,5,4,5c2.5,0,4-1.5,4-5V279h1.7v7.2c0,4.5-2.3,6.6-5.8,6.6
			C888.3,292.7,886,290.7,886,286.2z"/>
		<path d="M900.4,279h4.4c2.7,0,3.9,1.6,3.9,3.5c0,1-0.6,2.1-1.4,2.6c1.3,0.6,2.1,1.9,2.1,3.3c0,2.2-1.3,3.9-4.4,3.9h-4.6V279z
			 M904.8,284.5c1.7,0,2.2-1,2.2-2c0-1-0.5-2-2.2-2h-2.6v4H904.8z M905.1,290.9c2,0,2.6-1.2,2.6-2.4s-0.6-2.4-2.6-2.4h-2.9v4.9
			H905.1z"/>
	</g>
	<g>
		<path d="M1074,278.7h4.2c5.2,0,7.5,3,7.5,6.7s-2.3,6.7-7.5,6.7h-4.2V278.7z M1078.2,290.6c4.4,0,5.6-2.5,5.6-5.1s-1.2-5.1-5.6-5.1
			h-2.4v10.3H1078.2z"/>
		<path d="M1087.8,278.7h8.1v1.5h-6.3v4.1h5.2v1.5h-5.2v4.8h6.3v1.5h-8.1V278.7z"/>
		<path d="M1098.3,278.7h4.4c3.1,0,4.4,1.9,4.4,4s-1.3,4-4.4,4h-2.6v5.3h-1.8V278.7z M1102.7,285.3c2,0,2.6-1.3,2.6-2.5
			s-0.6-2.5-2.6-2.5h-2.6v5.1H1102.7z"/>
		<path d="M1108.7,278.7h1.8v11.9h6.3v1.5h-8.1V278.7z"/>
		<path d="M1117.1,285.4c0-4.1,3-7.1,7.1-7.1c4.1,0,7.1,3,7.1,7.1s-3,7.1-7.1,7.1C1120.1,292.5,1117.1,289.5,1117.1,285.4z
			 M1129.5,285.4c0-3.3-2.2-5.6-5.2-5.6c-3.1,0-5.3,2.3-5.3,5.6c0,3.2,2.2,5.6,5.3,5.6C1127.3,291,1129.5,288.7,1129.5,285.4z"/>
		<path d="M1136,286.8l-5.2-8h1.9l4.2,6.6l4.2-6.6h1.9l-5.2,8v5.4h-1.8V286.8z"/>
		<path d="M1148.3,288.6c0-1.7,1.2-2.7,2.6-3.6c-0.7-1.2-1.1-2.3-1.1-3.4c0-1.9,1.7-3.3,3.8-3.3c1.9,0,3.4,1.2,3.4,2.7
			c0,2.1-2.1,3-4,4.1c1,1.5,2.3,2.9,3.3,3.9c0.4-0.7,0.6-2.6,0.5-3.7h3.4v1.1h-2.1c-0.1,1-0.2,2.4-0.8,3.5c1.2,1.1,1.9,1.3,2.7,1.3
			c0.4,0,1.1-0.2,1.5-0.8l0.4,0.6c-0.6,0.9-1.5,1.3-2.3,1.3c-1.2,0-2.1-0.2-3.3-1.2c-0.8,0.7-1.8,1.2-3.3,1.2
			C1150.7,292.5,1148.3,291.3,1148.3,288.6z M1155.3,290.4c-1-1-2.5-2.7-3.7-4.4c-0.9,0.7-1.6,1.5-1.6,2.6c0,1.5,1.3,2.6,3.1,2.6
			C1154.1,291.3,1154.9,291,1155.3,290.4z M1155.4,281.1c0-1-0.8-1.5-1.8-1.5c-1.5,0-2.2,1-2.2,2c0,0.9,0.3,1.7,0.8,2.6
			C1153.9,283.3,1155.4,282.4,1155.4,281.1z"/>
		<path d="M1167.4,278.7h1.7l5.2,11.1l5.2-11.1h1.7v13.4h-1.7V283c0-0.3,0-1.1,0-1.1c0,0.1-0.3,0.8-0.5,1.1l-4.2,9.1h-1.2l-4.2-9.1
			c-0.2-0.3-0.4-1-0.5-1.1c0,0,0,0.8,0,1.1v9.1h-1.6V278.7z"/>
		<path d="M1188.4,278.7h1.2l5.8,13.4h-1.8l-1.6-3.8h-5.9l-1.6,3.8h-1.7L1188.4,278.7z M1191.3,286.9l-2.3-5.5l-2.3,5.5H1191.3z"/>
		<path d="M1196.9,278.7h1l8,10v-10h1.6v13.4h-1l-8-10v10h-1.6V278.7z"/>
		<path d="M1214.8,278.7h1.2l5.8,13.4h-1.8l-1.6-3.8h-5.9l-1.6,3.8h-1.7L1214.8,278.7z M1217.7,286.9l-2.3-5.5l-2.3,5.5H1217.7z"/>
		<path d="M1221.7,285.4c0-4.3,3.3-7,7.1-7c1.7,0,3.5,0.6,4.6,1.4v1.9c-1.1-1-2.6-1.8-4.6-1.8c-3.1,0-5.3,2.1-5.3,5.5
			c0,3.3,2.2,5.6,5.3,5.6c1.3,0,2.5-0.3,3.4-0.8v-3h-2.7v-1.5h4.5v5.4c-0.7,0.3-2.7,1.4-5.2,1.4
			C1224.9,292.5,1221.7,289.8,1221.7,285.4z"/>
		<path d="M1236.8,278.7h8.1v1.5h-6.3v4.1h5.2v1.5h-5.2v4.8h6.3v1.5h-8.1V278.7z"/>
		<path d="M1250.3,278.7h1.8l3.2,9.9c0.1,0.2,0.2,0.8,0.2,0.8c0-0.1,0.1-0.6,0.2-0.8l3.2-9.9h1.1l3.2,9.9c0.1,0.2,0.2,0.8,0.2,0.8
			s0.1-0.6,0.2-0.8l3.2-9.9h1.7l-4.6,13.4h-1.1l-3.2-9.2c-0.1-0.2-0.2-0.7-0.2-0.7c0,0-0.2,0.6-0.2,0.7l-3.2,9.2h-1.1L1250.3,278.7z
			"/>
		<path d="M1270.1,278.7h1.8v13.4h-1.8V278.7z"/>
		<path d="M1278.2,280.2h-4.8v-1.5h11.3v1.5h-4.8v11.9h-1.8V280.2z"/>
		<path d="M1286.4,278.7h1.8v5.6h7.4v-5.6h1.8v13.4h-1.8v-6.3h-7.4v6.3h-1.8V278.7z"/>
		<path d="M1304.4,278.7h1l8,10v-10h1.6v13.4h-1l-8-10v10h-1.6V278.7z"/>
		<path d="M1317.9,278.7h8.1v1.5h-6.3v4.1h5.2v1.5h-5.2v4.8h6.3v1.5h-8.1V278.7z"/>
		<path d="M1331.9,280.2h-4.8v-1.5h11.3v1.5h-4.8v11.9h-1.8V280.2z"/>
		<path d="M1340,278.7h1.8v11.9h6.3v1.5h-8.1V278.7z"/>
		<path d="M1349.7,278.7h1.8v13.4h-1.8V278.7z"/>
		<path d="M1354.3,278.7h8.1v1.5h-6.3v4.1h5.2v1.5h-5.2v6.3h-1.8V278.7z"/>
		<path d="M1367.8,286.8l-5.2-8h1.9l4.2,6.6l4.2-6.6h1.9l-5.2,8v5.4h-1.8V286.8z"/>
	</g>
	<g>
		<g>
			<path class="st27" d="M1151.6,169.9l0.3,5.7c3.6-4.4,8.4-6.6,14.4-6.6c10.3,0,15.5,5.9,15.7,17.7v32.7h-11.1v-32
				c0-3.1-0.7-5.5-2-7c-1.4-1.5-3.6-2.3-6.6-2.3c-4.5,0-7.8,2-10,6.1v35.2h-11.1v-49.4H1151.6L1151.6,169.9z M1215,220.2
				c-7,0-12.7-2.2-17.1-6.6c-4.4-4.4-6.5-10.3-6.5-17.7v-1.4c0-4.9,0.9-9.3,2.8-13.2c1.9-3.9,4.6-6.9,8-9.1
				c3.4-2.2,7.3-3.2,11.5-3.2c6.7,0,11.9,2.1,15.6,6.4c3.7,4.3,5.5,10.4,5.5,18.2v4.5h-32.2c0.3,4.1,1.7,7.3,4.1,9.7
				c2.4,2.4,5.4,3.6,9,3.6c5.1,0,9.2-2.1,12.4-6.2l6,5.7c-2,3-4.6,5.2-7.9,6.9C1222.8,219.4,1219.1,220.2,1215,220.2L1215,220.2z
				 M1213.6,177.9c-3,0-5.5,1.1-7.4,3.2c-1.9,2.1-3.1,5.1-3.6,8.9h21.1v-0.8c-0.2-3.7-1.2-6.5-3-8.4
				C1219.1,178.8,1216.7,177.9,1213.6,177.9z M1257.2,157.8v12h8.7v8.2h-8.7v27.6c0,1.9,0.4,3.2,1.1,4.1c0.7,0.8,2.1,1.3,4,1.3
				c1.3,0,2.6-0.2,3.9-0.5v8.6c-2.5,0.7-5,1-7.3,1c-8.5,0-12.8-4.7-12.8-14.1v-28h-8.1v-8.2h8.1v-12L1257.2,157.8L1257.2,157.8z
				 M1286.1,219.3h-11.1v-70.2h11.1V219.3z M1310,219.3h-11.1v-49.4h11.1V219.3z M1298.2,157c0-1.7,0.5-3.1,1.6-4.2
				c1.1-1.1,2.6-1.7,4.6-1.7c2,0,3.6,0.6,4.7,1.7c1.1,1.1,1.6,2.5,1.6,4.2c0,1.7-0.5,3.1-1.6,4.2c-1.1,1.1-2.6,1.7-4.7,1.7
				c-2,0-3.5-0.6-4.6-1.7C1298.8,160.1,1298.2,158.7,1298.2,157L1298.2,157z M1325.9,219.3v-41.2h-7.5v-8.2h7.5v-4.5
				c0-5.5,1.5-9.7,4.6-12.7c3-3,7.3-4.5,12.8-4.5c1.9,0,4,0.3,6.2,0.8l-0.3,8.7c-1.4-0.3-2.8-0.4-4.2-0.4c-5.3,0-7.9,2.7-7.9,8.2
				v4.4h10v8.2h-10v41.2L1325.9,219.3L1325.9,219.3z M1372.4,203.4l10-33.5h11.8l-19.6,56.9c-3,8.3-8.1,12.5-15.3,12.5
				c-1.6,0-3.4-0.3-5.3-0.8v-8.6l2.1,0.1c2.8,0,4.9-0.5,6.3-1.5c1.4-1,2.5-2.7,3.4-5.1l1.6-4.2l-17.3-49.2h11.9L1372.4,203.4z"/>
			
				<radialGradient id="SVGID_2_" cx="145.6574" cy="783.4565" r="2.6018" gradientTransform="matrix(0 38.301 44.1228 0 -33505.2656 -5440.5869)" gradientUnits="userSpaceOnUse">
				<stop  offset="0" style="stop-color:#20C6B7"/>
				<stop  offset="1" style="stop-color:#4D9ABF"/>
			</radialGradient>
			<path class="st32" d="M1085.4,172.9L1085.4,172.9C1085.3,172.8,1085.3,172.8,1085.4,172.9c-0.2-0.1-0.2-0.2-0.2-0.3l2-12.3
				l9.4,9.4l-9.8,4.2c0,0-0.1,0-0.1,0h0c0,0,0,0-0.1,0C1086.3,173.5,1085.9,173.1,1085.4,172.9z M1099,172.1l10.1,10.1
				c2.1,2.1,3.1,3.1,3.5,4.4c0.1,0.2,0.1,0.4,0.1,0.5l-24.1-10.2c0,0,0,0,0,0c-0.1,0-0.2-0.1-0.2-0.2c0-0.1,0.1-0.1,0.2-0.2l0,0
				L1099,172.1z M1112.4,190.3c-0.5,1-1.5,2-3.2,3.7l-11.4,11.4l-14.7-3.1l-0.1,0c-0.1,0-0.3,0-0.3-0.2c-0.1-1.2-0.7-2.3-1.7-3.1
				c-0.1-0.1,0-0.2,0-0.2c0,0,0,0,0,0l2.8-17l0-0.1c0-0.1,0-0.3,0.2-0.3c1.2-0.1,2.3-0.8,3-1.7c0,0,0-0.1,0.1-0.1c0.1,0,0.2,0,0.3,0
				L1112.4,190.3L1112.4,190.3z M1095.1,208l-18.7,18.7l3.2-19.6l0,0c0,0,0-0.1,0-0.1c0-0.1,0.1-0.1,0.2-0.1l0,0
				c0.7-0.3,1.3-0.8,1.8-1.3c0.1-0.1,0.1-0.1,0.2-0.2c0,0,0.1,0,0.1,0L1095.1,208L1095.1,208z M1072.5,230.6l-2.1,2.1l-23.3-33.6
				c0,0,0,0,0,0c0,0-0.1-0.1-0.1-0.2c0,0,0-0.1,0.1-0.1l0,0c0.1-0.1,0.1-0.2,0.2-0.3l0.1-0.1l0,0c0-0.1,0.1-0.1,0.1-0.2
				c0.1,0,0.1,0,0.2,0l25.8,5.3c0.1,0,0.1,0,0.2,0.1c0,0,0,0.1,0,0.1c0.4,1.4,1.4,2.5,2.7,3.1c0.1,0,0,0.1,0,0.2c0,0,0,0.1,0,0.1
				C1076,209,1073.3,226,1072.5,230.6z M1068.1,235c-1.6,1.5-2.5,2.3-3.5,2.7c-1,0.3-2.1,0.3-3.1,0c-1.2-0.4-2.3-1.4-4.4-3.5
				l-23.4-23.4l6.1-9.5c0,0,0.1-0.1,0.1-0.1c0.1,0,0.2,0,0.2,0c1.4,0.4,2.9,0.3,4.3-0.2c0.1,0,0.1,0,0.2,0c0,0,0.1,0.1,0.1,0.1
				L1068.1,235L1068.1,235z M1031.5,208.5l-5.4-5.4l10.6-4.5c0,0,0.1,0,0.1,0c0.1,0,0.1,0.1,0.2,0.2c0.1,0.2,0.2,0.3,0.3,0.5l0,0
				c0,0,0,0.1,0,0.1L1031.5,208.5L1031.5,208.5z M1023.8,200.8l-6.8-6.8c-1.2-1.2-2-2-2.6-2.7l20.6,4.3c0,0,0.1,0,0.1,0
				c0.1,0,0.3,0,0.3,0.2c0,0.1-0.2,0.2-0.3,0.2l-0.1,0L1023.8,200.8z M1013.2,187.8c0-0.4,0.1-0.9,0.2-1.3c0.4-1.2,1.4-2.3,3.5-4.4
				l8.7-8.7c4,5.8,8,11.6,12,17.4c0.1,0.1,0.1,0.2,0.1,0.3c-0.4,0.4-0.8,0.9-1,1.4c0,0.1-0.1,0.1-0.1,0.2c0,0-0.1,0-0.1,0h0
				L1013.2,187.8L1013.2,187.8z M1028,171.2l11.7-11.7c1.1,0.5,5.1,2.2,8.7,3.7c2.7,1.1,5.2,2.2,5.9,2.5c0.1,0,0.1,0.1,0.2,0.1
				c0,0,0,0.1,0,0.2c-0.4,1.7,0.1,3.5,1.4,4.8c0.1,0.1,0,0.2-0.1,0.3l0,0.1l-11.9,18.4c0,0.1-0.1,0.1-0.1,0.1c-0.1,0-0.2,0-0.2,0
				c-0.5-0.1-0.9-0.2-1.4-0.2c-0.4,0-0.9,0.1-1.4,0.2h0c-0.1,0-0.1,0-0.1,0c0,0-0.1-0.1-0.1-0.1L1028,171.2L1028,171.2z M1042,157.2
				l15.1-15.1c2.1-2.1,3.1-3.1,4.4-3.5c1-0.3,2.1-0.3,3.1,0c1.2,0.4,2.3,1.4,4.4,3.5l3.3,3.3l-10.7,16.6c0,0-0.1,0.1-0.1,0.1
				c-0.1,0-0.2,0-0.2,0c-1.7-0.5-3.6-0.2-5,1c-0.1,0.1-0.2,0-0.3,0C1054.5,162.4,1043.6,157.8,1042,157.2z M1074.5,147.6l9.9,9.9
				l-2.4,14.8v0c0,0,0,0.1,0,0.1c0,0.1-0.1,0.1-0.1,0.1c-0.5,0.2-1,0.4-1.4,0.7c0,0,0,0-0.1,0c0,0-0.1,0.1-0.1,0.1c0,0-0.1,0-0.1,0
				l-15.1-6.4l0,0c-0.1,0-0.2-0.1-0.2-0.2c-0.1-0.8-0.4-1.7-0.8-2.4c-0.1-0.1-0.2-0.2-0.1-0.4L1074.5,147.6z M1064.3,170l14.2,6
				c0.1,0,0.2,0.1,0.2,0.2c0,0,0,0.1,0,0.1c0,0.2-0.1,0.4-0.1,0.7v0.4c0,0.1-0.1,0.1-0.2,0.2l0,0c-2.2,1-31.5,13.4-31.6,13.4
				s-0.1,0-0.1,0c-0.1-0.1,0-0.2,0.1-0.3c0,0,0,0,0-0.1l11.6-18l0,0c0.1-0.1,0.1-0.2,0.3-0.2l0.1,0c0.3,0,0.5,0.1,0.7,0.1
				c1.8,0,3.4-0.9,4.4-2.3c0,0,0.1-0.1,0.1-0.1C1064.1,169.9,1064.2,169.9,1064.3,170z M1048.1,193.8l31.9-13.6c0,0,0,0,0.1,0
				c0.2,0.2,0.3,0.3,0.5,0.4l0.1,0c0.1,0,0.1,0.1,0.1,0.1c0,0,0,0,0,0.1l-2.7,16.8l0,0.1c0,0.1,0,0.3-0.2,0.3
				c-1.5,0.1-2.8,0.9-3.6,2.2l0,0c0,0.1-0.1,0.1-0.1,0.1c-0.1,0-0.1,0-0.2,0l-25.5-5.2C1048.5,195.2,1048.1,193.8,1048.1,193.8z"/>
		</g>
	</g>
</g>
</svg>
