<?xml version="1.0" encoding="utf-8"?>
<!-- Generator: Adobe Illustrator 24.0.1, SVG Export Plug-In . SVG Version: 6.00 Build 0)  -->
<svg version="1.1" id="Layer_1" xmlns="http://www.w3.org/2000/svg" xmlns:xlink="http://www.w3.org/1999/xlink" x="0px" y="0px"
	 viewBox="0 0 439 112.1" style="enable-background:new 0 0 439 112.1;" xml:space="preserve">
<style type="text/css">
	.st0{fill:#C9FA4B;}
	.st1{fill:#1E1F21;}
</style>
<g id="Layer_1_1_">
</g>
<g>
	<path class="st0" d="M25.8,64.1c0,0,0,0.1-0.1,0.2l-12.9,5.5h0c0,0,0,0-0.1,0L2.2,59.3c0,0-0.1-0.1,0-0.2c0,0,0.1-0.1,0.1-0.1h0
		l23.4,4.9C25.8,63.9,25.8,64,25.8,64.1L25.8,64.1z M27.1,60.8C27,60.8,27,60.8,27.1,60.8L0.1,55.1c-0.1,0-0.1,0-0.1-0.1
		c0,0,0-0.1,0-0.1l15-14.9c0,0,0,0,0.1,0c0.1,0,0.1,0,0.1,0.1c0,0,12.9,18.7,13,18.9c0,0,0,0.1,0,0.2c-0.4,0.5-0.9,1-1.1,1.6
		C27.2,60.8,27.1,60.8,27.1,60.8L27.1,60.8z M32.7,22.9c0,0-0.1,0,0-0.1c0,0,0-0.1,0-0.1L55.3,0.1c0,0,0,0,0.1,0c0,0,0,0,0.1,0
		l9.7,9.7c0,0,0,0.1,0,0.2L53.5,28.2c0,0-0.1,0.1-0.1,0.1h0c-1.9-0.6-3.9-0.2-5.4,1c0,0,0,0-0.1,0h0C47.1,29,32.7,22.9,32.7,22.9
		L32.7,22.9z M31.3,57.4L17.8,37.6c0,0,0-0.1,0-0.2l12.1-12.1c0,0,0,0,0.1,0h0c0,0,14.3,6.1,15.9,6.8c0,0,0.1,0.1,0.1,0.2
		c-0.4,1.8,0.1,3.8,1.4,5.1c0,0,0,0.1,0,0.2L34.8,57.4c0,0-0.1,0.1-0.1,0.1h0c-0.5-0.1-1.1-0.2-1.6-0.2c-0.5,0-1,0.1-1.5,0.2h0
		C31.4,57.5,31.4,57.4,31.3,57.4L31.3,57.4z M35.7,69.7l25.2,36.6c0,0,0,0.1,0,0.2l-5.5,5.5c0,0,0,0-0.1,0c0,0,0,0-0.1,0L23.7,80.8
		c0,0,0-0.1,0-0.2l0,0l6.9-10.6c0,0,0.1-0.1,0.1-0.1h0c0.7,0.2,1.4,0.3,2.1,0.3c0.9,0,1.8-0.2,2.6-0.6h0
		C35.6,69.6,35.7,69.6,35.7,69.7L35.7,69.7z M27.9,67.8C28,67.9,28,67.9,27.9,67.8L21.5,78c0,0-0.1,0.1-0.1,0.1c0,0,0,0-0.1,0
		l-5.8-5.7c0,0,0-0.1,0-0.1c0,0,0-0.1,0.1-0.1l11.8-5h0c0,0,0.1,0,0.1,0.1C27.6,67.4,27.8,67.6,27.9,67.8z M39.4,63.2
		c0-0.4-0.1-0.7-0.1-1.1c0-0.1,0-0.1,0.1-0.2l33.8-14.5h0c0,0,0,0,0.1,0c0.2,0.2,0.4,0.4,0.6,0.5c0.1,0,0.1,0.1,0.1,0.1l-3,18.1
		c0,0.1,0,0.1-0.1,0.1c-1.6,0.1-3,1-3.9,2.4c0,0-0.1,0.1-0.1,0.1h0l-27.4-5.7C39.4,63.4,39.4,63.3,39.4,63.2L39.4,63.2z M69.4,75.7
		c0.1,0,0.1,0.1,0,0.1l-4.3,26.4c0,0,0,0,0,0.1l-1.5,1.5c0,0,0,0-0.1,0c0,0,0,0-0.1,0L38.2,67.5c0,0,0-0.1,0-0.2
		c0.1-0.2,0.2-0.4,0.4-0.6c0,0,0.1-0.1,0.1-0.1h0l27.6,5.7c0.1,0,0.1,0.1,0.1,0.1C66.9,73.9,68,75.1,69.4,75.7L69.4,75.7z
		 M90.2,77.2c0,0,0.1,0,0.1,0.2c0,0,0,0.1,0,0.1L69.6,98.1c0,0,0,0-0.1,0h-0.1c0,0-0.1-0.1-0.1-0.2l3.6-22c0,0,0-0.1,0.1-0.1
		c0.8-0.3,1.6-0.9,2.1-1.6c0,0,0.1,0,0.1,0h0L90.2,77.2z M71.7,43c0,0,0.1,0.1,0.1,0.2c0,0.2-0.1,0.5-0.1,0.8v0.4c0,0,0,0.1-0.1,0.1
		L38,59h0c0,0-0.1,0-0.1,0c0,0,0-0.1,0-0.2l12.6-19.5c0,0,0.1-0.1,0.1-0.1h0c0.3,0,0.6,0.1,0.9,0.1c1.9,0,3.7-0.9,4.7-2.5
		c0,0,0.1-0.1,0.1-0.1h0L71.7,43L71.7,43z M108.8,58.8c0,0,0,0.1,0,0.1c0,0,0,0.1,0,0.1L93.3,74.5c0,0,0,0-0.1,0h0L76.3,71
		c-0.1,0-0.1,0-0.1-0.1c-0.1-1.3-0.8-2.5-1.8-3.3c0,0,0-0.1,0-0.1l3-18.4c0-0.1,0.1-0.1,0.1-0.1c1.3-0.2,2.5-0.8,3.2-1.9
		c0,0,0.1,0,0.1,0h0C80.8,46.9,108.8,58.8,108.8,58.8z M111.7,55.9c0.1,0,0.1,0.2,0,0.2l-0.1,0.1c0,0,0,0-0.1,0h0L82.3,43.9
		c0,0-0.1-0.1-0.1-0.1c0,0,0-0.1,0.1-0.1l11.8-5h0c0,0,0,0,0.1,0L111.7,55.9L111.7,55.9z M56.2,30.5c0,0,0-0.1,0-0.2l11.5-17.8
		c0,0,0-0.1,0.1-0.1s0,0,0.1,0L78,22.5c0,0,0,0.1,0,0.1l-2.7,16.5c0,0.1,0,0.1-0.1,0.1c-0.6,0.2-1.2,0.5-1.7,0.8c0,0,0,0-0.1,0h0
		l-16.3-6.9c0,0-0.1-0.1-0.1-0.1C57,32.2,56.7,31.3,56.2,30.5z M78.9,39.6c0,0-0.1-0.1-0.1-0.1L81,25.8c0-0.1,0-0.1,0.1-0.1h0
		c0,0,0,0,0.1,0l10.2,10.1c0,0,0,0.1,0,0.1c0,0,0,0.1-0.1,0.1l-10.9,4.7h0c0,0,0,0-0.1,0C79.9,40.3,79.4,39.9,78.9,39.6z"/>
	<path class="st1" d="M246.9,34.2h7.6v-6.8h-7.6V34.2z M269.5,30.6c-2.1,2.1-3.1,5-3.1,8.9v3.2h-5.2v5.7h5.2v28.8h7.6V48.4h6.9v-5.7
		H274v-3.1c0-3.8,1.8-5.7,5.5-5.7c1.1,0,2.1,0.1,2.9,0.2l0.2-6.1c-1.4-0.4-2.8-0.6-4.3-0.6C274.5,27.5,271.6,28.5,269.5,30.6
		L269.5,30.6z M297.7,66.1l-7.2-23.5h-8.2l11.9,34.4l-1.1,3c-0.6,1.7-1.3,2.9-2.3,3.6c-1,0.7-2.4,1.1-4.3,1.1l-1.4-0.1v6
		c1.2,0.4,2.4,0.5,3.7,0.6c4.9,0,8.5-2.9,10.6-8.7l13.5-39.8h-8.1L297.7,66.1L297.7,66.1z M246.9,77.2h7.6V42.7h-7.6V77.2z
		 M214.2,70.6c-0.5-0.6-0.8-1.6-0.8-2.9V48.4h6v-5.7h-6v-8.4h-7.6v8.4h-5.6v5.7h5.6V68c0,6.6,2.9,9.9,8.8,9.9c1.6,0,3.3-0.2,5-0.8
		v-6c-0.9,0.2-1.8,0.3-2.7,0.3C215.6,71.4,214.7,71.2,214.2,70.6z M189.5,56.7H175c0.3-2.7,1.2-4.8,2.5-6.2c1.3-1.5,3-2.2,5.1-2.2
		c2.1,0,3.8,0.7,4.9,2c1.2,1.3,1.9,3.3,2,5.9L189.5,56.7L189.5,56.7L189.5,56.7z M182.5,42c-2.8,0-5.5,0.8-7.9,2.3
		c-2.4,1.5-4.2,3.6-5.5,6.4c-1.3,2.7-1.9,5.8-1.9,9.2v0.9c0,5.1,1.5,9.3,4.5,12.4c3,3.1,6.9,4.7,11.7,4.7c2.8,0,5.4-0.6,7.7-1.7
		c2.2-1.1,4.1-2.7,5.4-4.8l-4.1-4c-2.2,2.9-5,4.3-8.5,4.3c-2.5,0-4.6-0.8-6.2-2.5c-1.7-1.6-2.6-3.9-2.8-6.8h22.2v-3.1
		c0-5.5-1.3-9.8-3.8-12.8C190.7,43.5,187.1,42,182.5,42z M149.7,42c-4.1,0-7.4,1.6-9.9,4.6l-0.2-4h-7.1v34.6h7.6V52.6
		c1.5-2.8,3.8-4.2,6.9-4.2c2.1,0,3.6,0.5,4.6,1.6c1,1,1.4,2.7,1.4,4.9v22.4h7.6V54.3C160.3,46.2,156.7,42,149.7,42z M227.5,77.2h7.6
		V28.2h-7.6V77.2z"/>
	<path class="st0" d="M335.9,71.1c1.9,0,3.5-0.6,4.8-1.7c1.3-1.1,2-2.5,2-4.2h7.3c-0.1,2.2-0.8,4.2-2,6c-1.3,1.9-3,3.3-5.1,4.4
		c-2.2,1.1-4.5,1.6-7,1.6c-4.8,0-8.7-1.6-11.5-4.7c-2.8-3.1-4.2-7.5-4.2-13v-0.8c0-5.3,1.4-9.5,4.2-12.6c2.8-3.2,6.6-4.7,11.5-4.7
		c4.1,0,7.5,1.2,10,3.6c2.6,2.4,3.9,5.5,4.1,9.4h-7.3c-0.1-2-0.8-3.6-2-4.9c-1.3-1.3-2.9-1.9-4.8-1.9c-2.5,0-4.5,0.9-5.8,2.7
		c-1.4,1.8-2.1,4.6-2.1,8.3V60c0,3.7,0.7,6.5,2,8.4C331.4,70.2,333.3,71.1,335.9,71.1L335.9,71.1z M362.7,42.1l0.2,3.6
		c2.4-2.8,5.7-4.2,10-4.2c4.6,0,7.8,1.8,9.5,5.3c2.5-3.5,6-5.3,10.6-5.3c3.8,0,6.6,1.1,8.5,3.2c1.9,2.1,2.8,5.2,2.9,9.3v22.7h-7.8
		V54.2c0-2.2-0.5-3.8-1.4-4.8c-1-1-2.5-1.5-4.8-1.5c-1.8,0-3.2,0.5-4.3,1.4c-1.1,0.9-1.9,2.2-2.3,3.7l0,23.7H376V53.9
		c-0.1-4.1-2.2-6.1-6.2-6.1c-3.1,0-5.3,1.3-6.6,3.8v25h-7.8V42.1H362.7L362.7,42.1z M431.1,67.3c0-1.4-0.6-2.4-1.7-3.2
		c-1.1-0.7-3-1.4-5.7-1.9c-2.6-0.6-4.8-1.3-6.6-2.1c-3.9-1.9-5.8-4.6-5.8-8.1c0-3,1.3-5.5,3.8-7.5c2.5-2,5.7-3,9.6-3
		c4.1,0,7.5,1,10,3.1c2.5,2,3.8,4.7,3.8,8h-7.8c0-1.5-0.6-2.7-1.7-3.7c-1.1-1-2.6-1.5-4.4-1.5c-1.7,0-3.1,0.4-4.2,1.2
		c-1.1,0.8-1.6,1.8-1.6,3.2c0,1.2,0.5,2.1,1.5,2.8c1,0.7,3,1.3,6.1,2c3,0.7,5.4,1.5,7.2,2.4c1.7,0.9,3,2,3.9,3.3
		c0.8,1.3,1.3,2.9,1.3,4.7c0,3.1-1.3,5.6-3.9,7.6c-2.6,1.9-5.9,2.9-10.1,2.9c-2.8,0-5.4-0.5-7.6-1.5c-2.2-1-3.9-2.4-5.2-4.2
		c-1.2-1.8-1.9-3.7-1.9-5.8h7.5c0.1,1.8,0.8,3.2,2.1,4.2c1.3,1,3,1.5,5.1,1.5c2,0,3.6-0.4,4.7-1.2C430.6,69.5,431.1,68.5,431.1,67.3
		L431.1,67.3z"/>
</g>
</svg>
