<svg xmlns="http://www.w3.org/2000/svg" width="64" height="64" shape-rendering="geometricPrecision" text-rendering="geometricPrecision" image-rendering="optimizeQuality" fill-rule="evenodd" clip-rule="evenodd" viewBox="0 0 640 640"><path d="M79.997 320c0 92.529 55.194 172.478 135.285 210.357L100.796 224.873c-13.311 29.09-20.8 61.253-20.8 95.127zm402.005-11.811c0-28.867-10.642-48.875-19.796-64.477-12.165-19.276-23.563-35.552-23.563-54.828 0-21.484 16.725-41.492 40.324-41.492 1.074 0 2.09.13 3.118.2C439.399 109.478 382.48 86.233 320 86.233c-83.848 0-157.608 41.918-200.53 105.356 5.645.166 10.96.284 15.437.284 25.087 0 63.97-2.965 63.97-2.965 12.92-.72 14.432 17.764 1.523 19.276 0 0-13.004 1.488-27.485 2.209l87.403 253.196 52.512-153.403-37.394-99.793c-12.933-.756-25.158-2.209-25.158-2.209-12.933-.755-11.397-19.996 1.524-19.275 0 0 39.638 2.964 63.19 2.964 25.087 0 63.97-2.964 63.97-2.964 12.92-.72 14.48 17.764 1.523 19.275 0 0-13.04 1.489-27.485 2.21l86.718 251.282 23.965-77.87c10.358-32.363 18.283-55.56 18.283-75.569l.036-.047zm-157.797 32.256l-72.013 203.802a246.132 246.132 0 0 0 67.808 9.52c27.957 0 54.757-4.677 79.69-13.24a21.053 21.053 0 0 1-1.724-3.237l-73.761-196.833v-.011zm206.388-132.604c1.051 7.441 1.606 15.437 1.606 24.036 0 23.717-4.57 50.363-18.248 83.73l-73.324 206.4c71.363-40.513 119.328-115.81 119.328-202.043 0-40.63-10.677-78.84-29.41-112.112l.048-.012zM320 .001C143.281 0 0 143.268 0 320c0 176.73 143.269 320 320 320s320-143.27 320-320C640 143.268 496.731 0 320 0zm0 600.006C165.356 600.007 39.993 474.643 39.993 320 39.993 165.356 165.357 39.993 320 39.993c154.644 0 280.007 125.364 280.007 280.007 0 154.644-125.364 280.007-280.007 280.007z"/></svg>